<?xml version="1.0" encoding="UTF-8"?><svg id="uuid-1598e833-aad5-4c4f-b01d-d090b45a3758" xmlns="http://www.w3.org/2000/svg" viewBox="0 0 799.92 799.92"><defs><style>.uuid-d616062a-5ed4-44aa-b463-0881830dd9b4{fill:#fff;}</style></defs><path class="uuid-d616062a-5ed4-44aa-b463-0881830dd9b4" d="M591.23,398.39v117.7c12.04-5.32,22.35-14.09,31.12-26.43,11.34-15.95,15.77-32.33,16.23-34.13,3.88-19.53,2.31-33.78-4.7-42.34-9.38-11.47-29.07-14.3-42.65-14.8Z"/><path class="uuid-d616062a-5ed4-44aa-b463-0881830dd9b4" d="M399.96,10.91C185.09,10.91,10.9,185.09,10.9,399.96s174.19,389.05,389.05,389.05,389.05-174.19,389.05-389.05S614.83,10.91,399.96,10.91Zm41.3,193.38c-6.67-7.73-14.85-17.43-14.85-35.76,0-6.21,5.15-11.36,11.36-11.36s11.36,5.15,11.36,11.36c0,10,3.79,14.24,9.39,20.91,6.67,7.73,14.85,17.43,14.85,35.76s-8.18,27.88-14.85,35.61c-5.61,6.67-9.39,10.91-9.39,20.91,0,6.21-5.15,11.36-11.36,11.36s-11.36-5.15-11.36-11.36c0-18.33,8.18-27.88,14.85-35.61,5.61-6.67,9.39-10.91,9.39-20.91s-3.79-14.24-9.39-20.91Zm-60.61,.15c-6.67-7.73-14.85-17.27-14.85-35.76s8.18-28.03,14.85-35.76c5.61-6.67,9.39-10.91,9.39-20.91,0-6.21,5.15-11.36,11.36-11.36s11.36,5.15,11.36,11.36c0,18.33-8.18,27.88-14.85,35.61-5.61,6.67-9.39,10.91-9.39,20.91s3.79,14.24,9.39,20.91c6.67,7.73,14.85,17.43,14.85,35.76s-8.18,27.88-14.85,35.61c-5.61,6.67-9.39,10.91-9.39,20.91,0,6.21-5.15,11.36-11.36,11.36s-11.36-5.15-11.36-11.36c0-18.33,8.18-27.88,14.85-35.46,5.61-6.67,9.39-10.91,9.39-20.91s-3.79-14.24-9.39-20.91Zm-60.61-.15c-6.67-7.73-14.85-17.43-14.85-35.76,0-6.21,5.15-11.36,11.36-11.36s11.36,5.15,11.36,11.36c0,10,3.79,14.24,9.39,20.91,6.67,7.73,14.85,17.43,14.85,35.76s-8.18,27.88-14.85,35.61c-5.61,6.67-9.39,10.91-9.39,20.91,0,6.21-5.15,11.36-11.36,11.36s-11.36-5.15-11.36-11.36c0-18.33,8.18-27.88,14.85-35.61,5.61-6.67,9.39-10.91,9.39-20.91s-3.79-14.24-9.39-20.91Zm371.32,263.01c-.63,2.79-6.7,28.02-24.94,53.69-19.65,27.64-45.78,45.33-76.62,52.16-5.57,34.2-27.13,63.69-59.04,79.38,1.81,4.31,2.73,8.88,2.73,13.58,0,19.38-15.76,35.14-35.14,35.14h-210.84c-19.38,0-35.14-15.76-35.14-35.14,0-4.7,.92-9.26,2.73-13.58h0c-37.3-18.35-60.48-55.54-60.48-97.07v-209.04c0-9.95,8.07-18.02,18.02-18.02h360.58c9.25,0,16.85,6.97,17.89,15.93,37.59,.94,66.8,12.84,84.63,34.63,17.82,21.79,23.12,51.3,15.75,87.73l-.13,.6Z"/></svg>