<?xml version="1.0" encoding="UTF-8"?><svg id="uuid-f0660db2-6480-4907-a481-f64460e7c65d" xmlns="http://www.w3.org/2000/svg" viewBox="0 0 799.92 799.92"><defs><style>.uuid-98a4ba39-d310-4911-838f-78eb8efee2e9{fill:#fff;}</style></defs><path class="uuid-98a4ba39-d310-4911-838f-78eb8efee2e9" d="M602.47,283.4c-40.32-45.28-91.05-65.49-151.42-60.98-23.22,1.73-45.19,8.56-65.86,19.38-11.15,5.8-21.65,12.78-31.29,20.84,.36,.47,.45,.69,.6,.77,12.31,6.07,24.07,13.18,35.16,21.26,.7,.51,2.43,.3,3.28-.24,30.48-19.31,63.51-25.97,99-19.68,34.78,6.17,63.07,23.54,84.7,51.29,24.48,31.41,33.81,66.92,27.06,106.43-4.53,26.48-15.14,50.24-33.17,70.14-32.9,36.28-74.1,51.29-122.59,44.94-29.86-3.91-55.63-16.79-76.96-38.35-27.38-27.65-54.93-55.13-82.39-82.71-3.66-3.67-7.73-6.63-13-7.27-9.21-1.13-17.56,3.47-21.53,11.74-3.55,7.38-3.09,15.71,4.6,23.27,30.61,30.05,60.95,60.37,91.52,90.45,5.23,5.17,10.84,9.95,16.79,14.29,22.33,16.22,47.52,25.19,74.79,28.8,21.4,2.83,42.64,2.22,63.72-2.52,40.2-9.03,73.5-29.54,99.72-61.2,21.66-26.16,34.75-56.22,39.32-89.98,2.65-19.25,2.09-38.8-1.63-57.86-6.08-31.18-19.27-59.07-40.41-82.81Z"/><path class="uuid-98a4ba39-d310-4911-838f-78eb8efee2e9" d="M299.18,540.87c-2.39-2.31-4.59-3.44-7.98-3.36-12.52,.31-25.06,.36-37.4-2.43-61.37-13.88-97-80.6-74.38-139.3,17.84-46.29,67.22-74.48,115.92-65.79,21.83,3.9,40.99,13.13,56.71,29.35,19.18,19.8,38.93,39.03,58.31,58.63,4.41,4.46,9.48,6.5,15.59,5.62,7.9-1.13,14.19-4.89,17.05-12.64,2.8-7.62,1.44-14.84-4.33-20.69-20.35-20.61-40.21-41.74-61.38-61.47-41.05-38.29-89.47-49.68-143.01-33.4-72.02,21.88-114.17,96.25-97.71,169.63,15,66.86,73.47,113.79,141.89,113.85,19.1,.02,38.21,0,57.32,0,.95,0,1.89-.08,3.35-.16-.83-.77-1.66-1.54-2.48-2.32-12.51-11.81-25.1-23.56-37.46-35.52Z"/><path class="uuid-98a4ba39-d310-4911-838f-78eb8efee2e9" d="M399.96,10.91C185.09,10.91,10.91,185.09,10.91,399.96s174.19,389.05,389.05,389.05,389.05-174.19,389.05-389.05S614.83,10.91,399.96,10.91Zm287.98,402.1c-1.02,8.57-1.68,17.19-3.09,25.7-4.6,27.64-14.54,53.34-29.32,77.1-22.44,36.07-52.77,63.58-90.89,82.36-22,10.89-45.72,17.89-70.11,20.69-5.42,.62-10.83,1.19-16.25,1.78h-210.22c-1.06-.2-2.11-.51-3.18-.58-21.2-1.33-41.59-6.17-61.03-14.67-42.32-18.52-73.88-48.53-94.53-89.84-9.13-18.22-15.03-37.89-17.46-58.12-.6-4.92-1.18-9.84-1.76-14.75v-19.11c.2-1.06,.51-2.12,.58-3.18,1.1-18.37,4.87-36.2,11.5-53.34,17.85-46.12,48.97-80.32,93.2-102.46,22.95-11.49,47.4-17.53,72.98-18.87,12.52-.65,25.04,.05,37.49,1.72,1.13,.15,2.75-.35,3.54-1.15,17.9-18.29,38.29-33.14,61.27-44.4,22.3-10.92,45.76-17.96,70.46-20.77,5.81-.67,11.64-1.21,17.46-1.81h17.92c1.17,.18,2.35,.39,3.52,.53,8.88,1.03,17.81,1.68,26.61,3.16,27.44,4.6,52.99,14.46,76.63,29.09,36.25,22.44,63.87,52.81,82.75,91.05,10.91,22.01,17.92,45.75,20.71,70.16,.64,5.62,1.19,11.24,1.78,16.85h0v19.7c-.19,1.07-.42,2.12-.55,3.18Z"/></svg>