<?xml version="1.0" encoding="UTF-8"?><svg id="uuid-07eaa614-66a5-4865-b1b1-09dab4a5a1ac" xmlns="http://www.w3.org/2000/svg" viewBox="0 0 799.92 799.92"><defs><style>.uuid-d8b2b42f-b026-4428-ab64-d799bb1f7752{fill:#fff;}.uuid-880b79d7-dc1e-4a6a-972b-ce63f153cac9{fill:none;fill-rule:evenodd;}</style></defs><path class="uuid-880b79d7-dc1e-4a6a-972b-ce63f153cac9" d="M472.08,77.04c-.08,.58-.08,.21,0,.96h.72l.24-.72-.24-.24h-.72Z"/><path class="uuid-880b79d7-dc1e-4a6a-972b-ce63f153cac9" d="M570,182.88h.96c-.07-.56-.11-.59-.24-.96-.42,.15-.23,.05-.48,.24-.18,.26-.14,.23-.24,.72Z"/><path class="uuid-880b79d7-dc1e-4a6a-972b-ce63f153cac9" d="M274.32,651.84c-.13,.36-.16,.41-.24,.96l.24,.24,.48-.24,.24-.72-.72-.24Z"/><path class="uuid-d8b2b42f-b026-4428-ab64-d799bb1f7752" d="M399.96,10.91C185.09,10.91,10.91,185.09,10.91,399.96s174.19,389.05,389.05,389.05,389.05-174.19,389.05-389.05S614.83,10.91,399.96,10.91Zm141.87,416.23c68.5-24.08,121.18,71.03-22.11,108.7,0,0,1.66-1.48,2.16-2.81,107.29-55.75,57.68-109.33,23.06-102.11-8.49,1.77-12.27,3.3-12.27,3.3,0,0,3.15-4.94,9.17-7.07Zm-84.64-60.77c32.17,45.28-37.87,81.44-37.87,81.44,0,0,34.83-28.58,7.25-60.34-93.51-107.74,102.27-156.64,102.27-156.64-124.72,72.33-101.68,93.31-71.64,135.54Zm-123.68-70.61c39.16-58.8,147.65-87.32,123.68-181.73,0,0,59.42,59.44-56.36,150.84-92.84,73.32-21.17,115.12-.04,162.89-54.19-48.9-93.96-91.94-67.28-132Zm-88.09,154.32c49.64-24,90-21.27,90-21.27,0,0-103.94,24.69-36.81,33.65,28.34,3.79,84.85,2.94,137.48-1.47,43.01-3.63,86.2-11.34,86.2-11.34,0,0-15.17,6.5-26.14,13.99-105.55,27.76-309.44,14.84-250.74-13.55Zm95.05,123.22c45.32,5.17,68.48,4.43,118.42-5.02,0,0,13.13,8.23,31.47,15.36-111.95,47.98-253.36-2.78-165.43-27.35,0,0-21.85,12.71,15.55,17.01Zm-29.23-79.62s-24.51,18.14,12.92,22.02c48.41,4.99,86.64,5.4,152.79-7.34,0,0,9.15,9.28,23.54,14.35-135.35,39.58-286.11,3.12-189.25-29.03Zm-30.51,107.34s-7.17-.51-19.73,2.21c-12.04,2.58-50.3,14.9-29.9,23.78,56.76,24.71,261.09,18.8,325.71-.78,33.98-10.31,17.81-23.63,17.81-23.63,59.21,26.71-128.62,80.39-356.88,43.37-83.7-13.57,40.28-60.94,62.98-44.96Zm65.25,83.08c-67.69-4.34-80.85-15.24-80.85-15.23,64.3,10.6,172.71,12.53,260.62-4.01,77.91-14.67,85.11-33.14,85.11-33.14-3.75,48.73-161.89,58.98-264.88,52.39Z"/></svg>