<?xml version="1.0" encoding="UTF-8"?><svg id="uuid-a9a5f087-9c44-477b-a567-4883846b7826" xmlns="http://www.w3.org/2000/svg" viewBox="0 0 799.92 799.92"><defs><style>.uuid-ca9535d4-6327-4afa-9ef0-90dd3c3859b8{fill:#fff;}</style></defs><path class="uuid-ca9535d4-6327-4afa-9ef0-90dd3c3859b8" d="M398.5,159.93c-132.77,0-240.4,107.63-240.4,240.4s107.63,240.4,240.4,240.4,240.4-107.63,240.4-240.4-107.63-240.4-240.4-240.4Zm199.28,223.23c12.01,17.76,21.38,38.58,22.02,60.25-7.6-28.77-26.71-54.35-52.79-68.77-25.22-14.21-56.2-17.83-83.83-9.45-34.67,9.95-63.3,38.29-73.18,73.18-8.38,27.78-4.8,58.4,8.38,83.83-18.33,31.76-51.44,54.42-87.39,61.24-27.64,5.8-56.69,1.32-82.41-10.3,23.02,6.71,48.03,7.89,70.9-.25,30.69-10.16,56.05-34.81,67.21-65.22,12.36-33.11,7.67-72.47-13.14-100.88-15.56-22.38-40.07-38.15-66.71-43.76-8.45-1.51-16.98-2.19-25.5-2.97-13.57-27.35-18.54-59.11-11.72-88.81l-.43-.26c7.81-37.72,33.39-71.76,67.78-88.81-5.98,6.07-13.21,10.73-18.76,17.33-22.66,24.44-32.89,59.82-26.64,92.36,7.89,49.66,54.56,90.23,105.15,89.52,39.22,1.75,77.44-20.82,96.62-54.85,41.06,1.39,80.99,22.59,104.44,56.62Z"/><path class="uuid-ca9535d4-6327-4afa-9ef0-90dd3c3859b8" d="M399.96,10.91C185.09,10.91,10.91,185.09,10.91,399.96s174.19,389.05,389.05,389.05,389.05-174.19,389.05-389.05S614.83,10.91,399.96,10.91Zm-2.15,655.05c-147.1,0-266.35-119.25-266.35-266.35S250.71,133.25,397.81,133.25s266.35,119.25,266.35,266.35-119.25,266.35-266.35,266.35Z"/></svg>