<?xml version="1.0" encoding="UTF-8"?><svg id="a" xmlns="http://www.w3.org/2000/svg" viewBox="0 0 799.92 799.92"><defs><style>.b{fill:none;}.c{fill:#fff;}</style></defs><path class="b" d="M787.9,370.53v-10.32c-.32-.16-.64-.32-.96-.48v-8.4c-.32-.24-.64-.48-.96-.72v-6.24c-.4-.32-.8-.64-1.2-.96-.57-1.39,.86-3.97,.24-5.76-.4-.4-.8-.8-1.2-1.2v-5.28c-.12-.26-.83-.37-.96-.72v-4.32c-.1-.17-.85-.24-.96-.48v-4.32l-.96-.72v-4.32c-.11-.24-.86-.31-.96-.48v-3.36c-.4-.4-.8-.8-1.2-1.2,.08-.88,.16-1.76,.24-2.64-.4-.4-.8-.8-1.2-1.2v-3.36c-.1-.17-.85-.24-.96-.48v-3.36c-.32-.24-.64-.48-.96-.72v-3.12l-.96-.72v-3.36c-.11-.24-.86-.31-.96-.48v-2.4c-.4-.4-.8-.8-1.2-1.2-.23-.81,.6-1.39,0-2.16-.17-.21-.83-.2-.96-.48v-2.4c-.12-.26-.83-.37-.96-.72v-3.36c-.1-.17-.85-.24-.96-.48v-2.4c-.32-.16-.64-.32-.96-.48v-2.4c-.19-.44-2.04-2.71-2.16-3.12,.08-.56,.16-1.12,.24-1.68-.17-.46-1.02-.57-1.2-.96v-2.4c-.12-.26-.83-.37-.96-.72v-2.16c-.32-.24-.64-.48-.96-.72v-1.2l-.96-.72v-2.4c-.32-.16-.64-.32-.96-.48v-1.44c-.19-.39-1.04-.5-1.2-.96,.08-.64,.16-1.28,.24-1.92h-.24l-.96-.96v-1.44c-.11-.18-.84-.23-.96-.48v-2.4c-.32-.16-.64-.32-.96-.48v-1.44c-.12-.25-.84-.3-.96-.48v-1.44c-.32-.24-.64-.48-.96-.72v-2.16c-.32-.24-.64-.48-.96-.72-.08-.56-.16-1.12-.24-1.68-.19-.27-.79-.32-.96-.72v-1.2c-.24-.08-.48-.16-.72-.24-.08-.56-.16-1.12-.24-1.68-.32-.24-.64-.48-.96-.72v-1.2l-.96-.72v-1.2c-.32-.24-.64-.48-.96-.72v-1.2c-.32-.24-.64-.48-.96-.72-.08-.56-.16-1.12-.24-1.68-.19-.27-.79-.32-.96-.72v-1.2c-.14-.27-.81-.37-.96-.72v-1.2c-.32-.24-.64-.48-.96-.72v-1.2l-.96-.72v-1.2c-.32-.24-.64-.48-.96-.72v-1.2c-.32-.24-.64-.48-.96-.72-.08-.56-.16-1.12-.24-1.68-.19-.27-.79-.32-.96-.72v-1.2c-.14-.27-.81-.37-.96-.72v-1.2c-.32-.63-1.55-.9-1.92-1.44v-1.44c-.32-.24-.64-.48-.96-.72v-1.2c-.32-.24-.64-.48-.96-.72-.08-.56-.16-1.12-.24-1.68-.41-.54-1.59-.79-1.92-1.44v-1.44c-.11-.18-.84-.24-.96-.48v-1.44c-.29-.53-1.63-.91-1.92-1.44v-1.44c-.31-.6-1.49-.93-1.92-1.44-.56-.68-.73-2.69-1.2-3.6-.64-.56-1.28-1.12-1.92-1.68v-1.2c-.64-.56-1.28-1.12-1.92-1.68-.08-.56-.16-1.12-.24-1.68-.39-.52-1.61-.84-1.92-1.44v-1.44c-.29-.53-1.63-.91-1.92-1.44v-1.44c-.3-.59-1.56-.92-1.92-1.44-.08-.56-.16-1.12-.24-1.68-.96-.88-1.92-1.76-2.88-2.64v-1.2l-2.88-2.64c-.08-.56-.16-1.12-.24-1.68-.41-.54-1.59-.79-1.92-1.44v-1.44c-.1-.16-.81-.3-.96-.48-.74-.87-1.38-1.78-2.16-2.64l-.72-.24c-.08-.56-.16-1.12-.24-1.68-.32-.16-.64-.32-.96-.48-.73-.86-1.34-1.87-2.16-2.64-.24-.08-.48-.16-.72-.24v-1.44c-.68-1.33-2.88-2.21-3.84-3.36-.08-.56-.16-1.12-.24-1.68-2-1.92-4-3.84-6-5.76-.27-.53,.06-1.05-.24-1.44-3.6-3.52-7.2-7.04-10.8-10.56v-1.2c-1.28-1.2-2.56-2.4-3.84-3.6-3.07-3.07-5.53-6.55-9.6-8.64-2.4-2.48-4.8-4.96-7.2-7.44-1.2-1.2-2.4-2.4-3.6-3.6h-1.2c-.48-.48-.96-.96-1.44-1.44-1.44-1.52-2.88-3.04-4.32-4.56l-1.68-.24c-1.15-.96-2.03-3.16-3.36-3.84h-1.44c-.76-.42-1.56-1.96-2.16-2.64-.29-.33-1.3-1.28-1.68-1.44h-1.2c-.08-.24-.16-.48-.24-.72-.86-.78-1.77-1.42-2.64-2.16-.18-.15-.32-.85-.48-.96h-1.44l-1.92-2.16h-1.2c-.88-.96-1.76-1.92-2.64-2.88h-1.2c-.88-.96-1.76-1.92-2.64-2.88-.56-.08-1.12-.16-1.68-.24-.52-.35-.85-1.62-1.44-1.92h-1.44c-.53-.29-.91-1.63-1.44-1.92h-1.44c-.6-.31-.93-1.49-1.44-1.92-.56-.08-1.12-.16-1.68-.24-.56-.64-1.12-1.28-1.68-1.92h-1.2c-.56-.64-1.12-1.28-1.68-1.92-.92-.47-2.92-.63-3.6-1.2-.51-.43-.84-1.61-1.44-1.92h-1.44c-.53-.29-.91-1.63-1.44-1.92h-1.44c-.25-.12-.3-.84-.48-.96h-1.44l-1.92-2.16h-1.2c-.24-.32-.48-.64-.72-.96h-1.2c-.24-.32-.48-.64-.72-.96h-1.44c-.54-.36-.81-1.6-1.44-1.92h-1.2c-.35-.15-.45-.82-.72-.96h-1.2c-.4-.4-.8-.8-1.2-1.2-7.26-3.21-13.61-6.67-20.88-9.84-.35-.15-.45-.82-.72-.96h-1.2c-.42-.18-.43-.73-.72-.96-.56-.08-1.12-.16-1.68-.24-.24-.32-.48-.64-.72-.96h-2.16c-.24-.32-.48-.64-.72-.96h-1.44c-.18-.11-.24-.84-.48-.96h-1.44c-.16-.32-.32-.64-.48-.96h-2.4l-.72-.96h-1.2c-.32-.4-.64-.8-.96-1.2h-2.4c-.17-.1-.25-.85-.48-.96h-1.44c-.16-.32-.32-.64-.48-.96h-2.4c-.24-.32-.48-.64-.72-.96h-1.2c-.24-.32-.48-.64-.72-.96h-2.16c-.35-.13-.46-.83-.72-.96h-2.16c-.4-.4-.8-.8-1.2-1.2h-2.16c-.24-.32-.48-.64-.72-.96h-1.2c-.24-.32-.48-.64-.72-.96h-2.4c-.16-.32-.32-.64-.48-.96h-2.4c-.24-.32-.48-.64-.72-.96h-3.12c-.35-.13-.46-.83-.72-.96h-2.16c-.4-.4-.8-.8-1.2-1.2h-2.16c-.24-.32-.48-.64-.72-.96h-2.16c-.24-.32-.48-.64-.72-.96h-3.36c-.24-.32-.48-.64-.72-.96h-3.12c-.24-.32-.48-.64-.72-.96h-3.36l-.72-.96h-3.12l-1.2-1.2h-3.12c-.24-.32-.48-.64-.72-.96h-3.12c-.24-.32-.48-.64-.72-.96h-4.32c-.24-.32-.48-.64-.72-.96h-4.32c-.24-.11-.31-.86-.48-.96h-4.32c-.24-.32-.48-.64-.72-.96h-5.28c-.4-.4-.8-.8-1.2-1.2h-6c-.77-.33-.47-.91-1.92-.96-2.32-.09-4.74,.44-5.76-.96-2.53,.07-7.96,.72-8.88-.96-3.16,.03-8.52,.7-10.8-.48v-.72h-57.84v.72c-.16,.16-.32,.32-.48,.48h-10.32c-.16,.32-.32,.64-.48,.96h-8.4c-.24,.32-.48,.64-.72,.96h-6.24c-.24,.32-.48,.64-.72,.96h-6c-.4,.4-.8,.8-1.2,1.2h-5.28c-.24,.32-.48,.64-.72,.96h-4.32c-.17,.1-.24,.85-.48,.96h-4.32c-.24,.32-.48,.64-.72,.96h-4.32c-.24,.32-.48,.64-.72,.96h-3.12c-.24,.32-.48,.64-.72,.96h-3.12c-.4,.4-.8,.8-1.2,1.2h-3.12l-.72,.96h-3.36c-.24,.32-.48,.64-.72,.96h-3.12c-.24,.32-.48,.64-.72,.96h-3.36c-.24,.32-.48,.64-.72,.96h-2.16c-.24,.32-.48,.64-.72,.96h-2.16c-.4,.4-.8,.8-1.2,1.2h-2.16c-.26,.13-.37,.83-.72,.96h-3.12c-.24,.32-.48,.64-.72,.96h-2.4c-.16,.32-.32,.64-.48,.96h-2.4c-.24,.32-.48,.64-.72,.96h-1.2c-.24,.32-.48,.64-.72,.96h-2.16c-.4,.4-.8,.8-1.2,1.2h-2.16c-.26,.13-.37,.83-.72,.96h-2.16c-.24,.32-.48,.64-.72,.96h-1.2c-.24,.32-.48,.64-.72,.96h-2.4c-.16,.32-.32,.64-.48,.96h-1.44c-.24,.12-.31,.86-.48,.96h-2.4c-.32,.4-.64,.8-.96,1.2h-1.2l-.72,.96h-2.4c-.16,.32-.32,.64-.48,.96h-1.44c-.25,.12-.3,.84-.48,.96h-1.44c-.24,.32-.48,.64-.72,.96h-2.16c-.24,.32-.48,.64-.72,.96-.56,.08-1.12,.16-1.68,.24-.29,.23-.3,.78-.72,.96h-1.2c-.08,.24-.16,.48-.24,.72l-1.68,.24c-.24,.32-.48,.64-.72,.96h-1.2c-.24,.32-.48,.64-.72,.96h-1.2c-.24,.32-.48,.64-.72,.96h-1.2c-.24,.32-.48,.64-.72,.96-.56,.08-1.12,.16-1.68,.24-.29,.23-.3,.78-.72,.96h-1.2c-.27,.14-.37,.81-.72,.96h-1.2c-.24,.32-.48,.64-.72,.96h-1.2c-.24,.32-.48,.64-.72,.96h-1.2c-.24,.32-.48,.64-.72,.96h-1.2c-.24,.32-.48,.64-.72,.96-.56,.08-1.12,.16-1.68,.24-.29,.23-.3,.78-.72,.96h-1.2c-.27,.14-.37,.81-.72,.96h-1.2c-.63,.32-.9,1.55-1.44,1.92h-1.44c-.24,.32-.48,.64-.72,.96h-1.2c-.24,.32-.48,.64-.72,.96h-1.2l-1.92,2.16h-1.44c-.18,.11-.23,.84-.48,.96h-1.44c-.53,.29-.91,1.62-1.44,1.92h-1.44c-.6,.31-.93,1.49-1.44,1.92-.68,.56-2.69,.73-3.6,1.2-.56,.64-1.12,1.28-1.68,1.92h-1.2l-1.68,1.92c-.56,.08-1.12,.16-1.68,.24-.51,.43-.84,1.61-1.44,1.92h-1.44c-.53,.29-.91,1.63-1.44,1.92h-1.44c-.59,.3-.92,1.56-1.44,1.92-.56,.08-1.12,.16-1.68,.24-.88,.96-1.76,1.92-2.64,2.88h-1.2c-.88,.96-1.76,1.92-2.64,2.88h-1.2l-1.92,2.16h-1.44c-.16,.11-.3,.81-.48,.96-.87,.74-1.78,1.38-2.64,2.16-.08,.24-.16,.48-.24,.72h-1.2c-.38,.16-1.39,1.11-1.68,1.44-.6,.68-1.4,2.22-2.16,2.64h-1.44c-1.33,.68-2.21,2.88-3.36,3.84l-1.68,.24c-1.44,1.52-2.88,3.04-4.32,4.56-.48,.48-.96,.96-1.44,1.44h-1.2c-1.2,1.2-2.4,2.4-3.6,3.6-2.4,2.48-4.8,4.96-7.2,7.44h-1.2c-1.2,1.28-2.4,2.56-3.6,3.84-3.07,3.07-6.55,5.53-8.64,9.6-2.64,2.56-5.28,5.12-7.92,7.68-1.04,1.04-2.08,2.08-3.12,3.12v1.2c-2,1.92-4,3.84-6,5.76-.08,.56-.16,1.12-.24,1.68-.96,1.15-3.16,2.03-3.84,3.36v1.44l-.72,.24c-.82,.77-1.43,1.78-2.16,2.64-.32,.16-.64,.32-.96,.48-.08,.56-.16,1.12-.24,1.68l-.72,.24c-.78,.86-1.41,1.77-2.16,2.64-.15,.18-.85,.32-.96,.48v1.44c-.33,.65-1.51,.9-1.92,1.44-.08,.56-.16,1.12-.24,1.68l-2.88,2.64v1.2c-.96,.88-1.92,1.76-2.88,2.64-.08,.56-.16,1.12-.24,1.68-.35,.52-1.62,.85-1.92,1.44v1.44c-.29,.53-1.63,.91-1.92,1.44v1.44c-.31,.6-1.53,.92-1.92,1.44-.08,.56-.16,1.12-.24,1.68-.64,.56-1.28,1.12-1.92,1.68v1.2c-.64,.56-1.28,1.12-1.92,1.68-.47,.92-.63,2.92-1.2,3.6-.43,.51-1.61,.84-1.92,1.44v1.44c-.29,.53-1.63,.91-1.92,1.44v1.44c-.12,.25-.84,.3-.96,.48v1.44c-.33,.65-1.5,.9-1.92,1.44-.08,.56-.16,1.12-.24,1.68-.32,.24-.64,.48-.96,.72v1.2c-.32,.24-.64,.48-.96,.72v1.44c-.36,.54-1.6,.81-1.92,1.44v1.2c-.15,.35-.82,.45-.96,.72v1.2c-.17,.4-.77,.45-.96,.72-.08,.56-.16,1.12-.24,1.68-.32,.24-.64,.48-.96,.72v1.2c-.32,.24-.64,.48-.96,.72v1.2c-.32,.24-.64,.48-.96,.72v1.2c-.32,.24-.64,.48-.96,.72-.08,.56-.16,1.12-.24,1.68-.24,.08-.48,.16-.72,.24v1.2c-.17,.4-.77,.45-.96,.72-.08,.56-.16,1.12-.24,1.68-.32,.24-.64,.48-.96,.72v1.2c-.32,.24-.64,.48-.96,.72v1.2c-.32,.24-.64,.48-.96,.72v1.2c-.32,.24-.64,.48-.96,.72v1.2c-.15,.35-.82,.45-.96,.72-.08,.56-.16,1.12-.24,1.68-.24,.08-.48,.16-.72,.24-.38,.54-.59,1.8-.96,2.4h-.24v2.16c-.32,.24-.64,.48-.96,.72v1.44c-.11,.18-.84,.24-.96,.48v1.44c-.32,.16-.64,.32-.96,.48v2.4c-.12,.25-.84,.3-.96,.48v1.44c-.4,.32-.8,.64-1.2,.96,.08,.64,.16,1.28,.24,1.92h-.24c-.26,.53-.76,.56-.96,.96v1.44c-.32,.16-.64,.32-.96,.48v2.4c-.32,.24-.64,.48-.96,.72v1.2c-.32,.24-.64,.48-.96,.72v2.16c-.13,.35-.83,.46-.96,.72v2.4c-.18,.39-1.04,.5-1.2,.96,.08,.56,.16,1.12,.24,1.68-.13,.43-1.95,2.66-2.16,3.12v2.4c-.32,.16-.64,.32-.96,.48v2.4c-.11,.24-.86,.31-.96,.48v3.36c-.13,.35-.83,.46-.96,.72v2.4c-.13,.29-.79,.26-.96,.48-.6,.78,.24,1.36,0,2.16-.4,.4-.8,.8-1.2,1.2v2.4c-.1,.17-.85,.24-.96,.48v3.36c-.32,.24-.64,.48-.96,.72v3.12c-.32,.24-.64,.48-.96,.72v3.36c-.11,.24-.86,.31-.96,.48v3.36c-.4,.4-.8,.8-1.2,1.2,.08,.88,.16,1.76,.24,2.64-.4,.4-.8,.8-1.2,1.2v3.36c-.1,.17-.85,.24-.96,.48v4.32c-.32,.24-.64,.48-.96,.72v4.32c-.11,.24-.86,.31-.96,.48v4.32c-.13,.35-.84,.46-.96,.72v5.28c-.4,.4-.8,.8-1.2,1.2-.63,1.79,.81,4.37,.24,5.76-.25,.6-1.05,.54-1.2,1.44-.42,2.5,.71,5.27-.96,6.48,.07,2.53,.72,7.96-.96,8.88,.03,3.16,.7,8.52-.48,10.8h-.72v57.84c.76,.14,.7,.21,1.2,.48v10.32c.32,.16,.64,.32,.96,.48v8.4c.32,.24,.64,.48,.96,.72v6.24c.4,.32,.8,.64,1.2,.96,.57,1.39-.86,3.97-.24,5.76,.4,.4,.8,.8,1.2,1.2v5.28c.12,.26,.83,.37,.96,.72v4.32c.1,.17,.85,.24,.96,.48v4.32c.32,.24,.64,.48,.96,.72v4.32c.11,.24,.86,.31,.96,.48v3.36c.4,.4,.8,.8,1.2,1.2-.08,.88-.16,1.76-.24,2.64,.4,.4,.8,.8,1.2,1.2v3.36c.1,.17,.85,.24,.96,.48v3.36c.32,.24,.64,.48,.96,.72v3.12c.32,.24,.64,.48,.96,.72v3.36c.11,.24,.86,.31,.96,.48v2.4c.4,.4,.8,.8,1.2,1.2,.23,.81-.6,1.39,0,2.16,.17,.21,.83,.2,.96,.48v2.4c.12,.26,.83,.37,.96,.72v3.36c.1,.17,.85,.24,.96,.48v2.4c.32,.16,.64,.32,.96,.48v2.4c.19,.44,2.04,2.71,2.16,3.12-.08,.56-.16,1.12-.24,1.68,.17,.46,1.02,.57,1.2,.96v2.4c.12,.26,.83,.37,.96,.72v2.16c.32,.24,.64,.48,.96,.72v1.2c.32,.24,.64,.48,.96,.72v2.4c.32,.16,.64,.32,.96,.48v1.44c.19,.39,1.04,.5,1.2,.96-.08,.64-.16,1.28-.24,1.92h.24c.32,.32,.64,.64,.96,.96v1.44c.11,.18,.84,.23,.96,.48v2.4c.32,.16,.64,.32,.96,.48v1.44c.12,.25,.84,.3,.96,.48v1.44c.32,.24,.64,.48,.96,.72v2.16c.32,.24,.64,.48,.96,.72,.08,.56,.16,1.12,.24,1.68,.19,.27,.79,.32,.96,.72v1.2l.72,.24c.08,.56,.16,1.12,.24,1.68,.32,.24,.64,.48,.96,.72v1.2c.32,.24,.64,.48,.96,.72v1.2c.32,.24,.64,.48,.96,.72v1.2c.32,.24,.64,.48,.96,.72,.08,.56,.16,1.12,.24,1.68,.19,.27,.79,.32,.96,.72v1.2c.14,.27,.81,.37,.96,.72v1.2c.32,.24,.64,.48,.96,.72v1.2c.32,.24,.64,.48,.96,.72v1.2c.32,.24,.64,.48,.96,.72v1.2c.32,.24,.64,.48,.96,.72,.08,.56,.16,1.12,.24,1.68,.19,.27,.79,.32,.96,.72v1.2c.14,.27,.81,.37,.96,.72v1.2c.32,.63,1.55,.9,1.92,1.44v1.44c.32,.24,.64,.48,.96,.72v1.2c.32,.24,.64,.48,.96,.72,.08,.56,.16,1.12,.24,1.68,.41,.54,1.59,.79,1.92,1.44v1.44c.11,.18,.84,.24,.96,.48v1.44c.29,.53,1.63,.91,1.92,1.44v1.44c.31,.6,1.49,.93,1.92,1.44,.56,.68,.73,2.69,1.2,3.6,.64,.56,1.28,1.12,1.92,1.68v1.2c.64,.56,1.28,1.12,1.92,1.68,.08,.56,.16,1.12,.24,1.68,.39,.52,1.61,.84,1.92,1.44v1.44c.29,.53,1.63,.91,1.92,1.44v1.44c.3,.59,1.56,.92,1.92,1.44,.08,.56,.16,1.12,.24,1.68,.96,.88,1.92,1.76,2.88,2.64v1.2c.96,.88,1.92,1.76,2.88,2.64,.08,.56,.16,1.12,.24,1.68,.41,.54,1.59,.79,1.92,1.44v1.44c.1,.16,.81,.3,.96,.48,.74,.87,1.38,1.78,2.16,2.64,.24,.08,.48,.16,.72,.24,.08,.56,.16,1.12,.24,1.68,.32,.16,.64,.32,.96,.48,.73,.86,1.34,1.87,2.16,2.64,.24,.08,.48,.16,.72,.24v1.44c.68,1.33,2.88,2.22,3.84,3.36,.08,.56,.16,1.12,.24,1.68,2,1.92,4,3.84,6,5.76,.27,.53-.06,1.05,.24,1.44,3.6,3.52,7.2,7.04,10.8,10.56v1.2l3.84,3.6c3.07,3.07,5.53,6.55,9.6,8.64,2.4,2.48,4.8,4.96,7.2,7.44,1.2,1.2,2.4,2.4,3.6,3.6h1.2c.48,.48,.96,.96,1.44,1.44,1.44,1.52,2.88,3.04,4.32,4.56,.56,.08,1.12,.16,1.68,.24,1.15,.96,2.03,3.16,3.36,3.84h1.44c.76,.42,1.56,1.96,2.16,2.64,.29,.33,1.3,1.28,1.68,1.44h1.2c.08,.24,.16,.48,.24,.72,.86,.78,1.77,1.42,2.64,2.16,.18,.15,.32,.85,.48,.96h1.44c.64,.72,1.28,1.44,1.92,2.16h1.2c.88,.96,1.76,1.92,2.64,2.88h1.2c.88,.96,1.76,1.92,2.64,2.88,.56,.08,1.12,.16,1.68,.24,.52,.35,.85,1.62,1.44,1.92h1.44c.53,.29,.91,1.63,1.44,1.92h1.44c.6,.31,.93,1.49,1.44,1.92,.56,.08,1.12,.16,1.68,.24,.56,.64,1.12,1.28,1.68,1.92h1.2c.56,.64,1.12,1.28,1.68,1.92,.92,.47,2.92,.63,3.6,1.2,.51,.43,.84,1.61,1.44,1.92h1.44c.53,.29,.91,1.63,1.44,1.92h1.44c.25,.12,.3,.84,.48,.96h1.44c.64,.72,1.28,1.44,1.92,2.16h1.2l.72,.96h1.2c.24,.32,.48,.64,.72,.96h1.44c.54,.36,.81,1.6,1.44,1.92h1.2c.35,.15,.45,.82,.72,.96h1.2c.4,.4,.8,.8,1.2,1.2,7.26,3.21,13.61,6.67,20.88,9.84,.35,.15,.45,.82,.72,.96h1.2c.42,.18,.43,.73,.72,.96,.56,.08,1.12,.16,1.68,.24l.72,.96h2.16c.24,.32,.48,.64,.72,.96h1.44c.18,.11,.24,.84,.48,.96h1.44c.16,.32,.32,.64,.48,.96h2.4c.24,.32,.48,.64,.72,.96h1.2c.32,.4,.64,.8,.96,1.2h2.4c.17,.1,.25,.85,.48,.96h1.44c.16,.32,.32,.64,.48,.96h2.4c.24,.32,.48,.64,.72,.96h1.2c.24,.32,.48,.64,.72,.96h2.16c.35,.13,.46,.83,.72,.96h2.16c.4,.4,.8,.8,1.2,1.2h2.16c.24,.32,.48,.64,.72,.96h1.2c.24,.32,.48,.64,.72,.96h2.4c.16,.32,.32,.64,.48,.96h2.4c.24,.32,.48,.64,.72,.96h3.12c.35,.13,.46,.83,.72,.96h2.16c.4,.4,.8,.8,1.2,1.2h2.16c.24,.32,.48,.64,.72,.96h2.16c.24,.32,.48,.64,.72,.96h3.36c.24,.32,.48,.64,.72,.96h3.12c.24,.32,.48,.64,.72,.96h3.36c.24,.32,.48,.64,.72,.96h3.12c.4,.4,.8,.8,1.2,1.2h3.12l.72,.96h3.12c.24,.32,.48,.64,.72,.96h4.32c.24,.32,.48,.64,.72,.96h4.32c.24,.11,.31,.86,.48,.96h4.32c.24,.32,.48,.64,.72,.96h5.28c.4,.4,.8,.8,1.2,1.2h6c.77,.33,.47,.91,1.92,.96,2.32,.09,4.74-.44,5.76,.96,2.53-.07,7.96-.72,8.88,.96h10.32c.24,.32,.48,.64,.72,.96h53.28c2.12,0,3.92,.29,4.8-.96h10.32c.16-.32,.32-.64,.48-.96h8.4c.24-.32,.48-.64,.72-.96h6.24l.72-.96h6c.4-.4,.8-.8,1.2-1.2h5.28c.24-.32,.48-.64,.72-.96h4.32c.17-.1,.24-.85,.48-.96h4.32c.24-.32,.48-.64,.72-.96h4.32c.24-.32,.48-.64,.72-.96h3.12c.24-.32,.48-.64,.72-.96h3.12l1.2-1.2h3.12c.24-.32,.48-.64,.72-.96h3.36c.24-.32,.48-.64,.72-.96h3.12c.24-.32,.48-.64,.72-.96h3.36c.24-.32,.48-.64,.72-.96h2.16c.24-.32,.48-.64,.72-.96h2.16c.4-.4,.8-.8,1.2-1.2h2.16c.26-.13,.37-.83,.72-.96h3.12c.24-.32,.48-.64,.72-.96h2.4c.16-.32,.32-.64,.48-.96h2.4c.24-.32,.48-.64,.72-.96h1.2c.24-.32,.48-.64,.72-.96h2.16c.4-.4,.8-.8,1.2-1.2h2.16c.26-.13,.37-.83,.72-.96h2.16c.24-.32,.48-.64,.72-.96h1.2c.24-.32,.48-.64,.72-.96h2.4c.16-.32,.32-.64,.48-.96h1.44c.24-.12,.31-.86,.48-.96h2.4c.32-.4,.64-.8,.96-1.2h1.2c.24-.32,.48-.64,.72-.96h2.4c.16-.32,.32-.64,.48-.96h1.44c.25-.12,.3-.84,.48-.96h1.44c.24-.32,.48-.64,.72-.96h2.16c.24-.32,.48-.64,.72-.96,.56-.08,1.12-.16,1.68-.24,.29-.23,.3-.78,.72-.96h1.2c.08-.24,.16-.48,.24-.72,.56-.08,1.12-.16,1.68-.24,.24-.32,.48-.64,.72-.96h1.2c.24-.32,.48-.64,.72-.96h1.2c.24-.32,.48-.64,.72-.96h1.2c.24-.32,.48-.64,.72-.96,.56-.08,1.12-.16,1.68-.24,.29-.23,.3-.78,.72-.96h1.2c.27-.14,.37-.81,.72-.96h1.2c.24-.32,.48-.64,.72-.96h1.2c.24-.32,.48-.64,.72-.96h1.2c.24-.32,.48-.64,.72-.96h1.2c.24-.32,.48-.64,.72-.96,.56-.08,1.12-.16,1.68-.24,.29-.23,.3-.78,.72-.96h1.2c.27-.14,.37-.81,.72-.96h1.2c.63-.32,.9-1.55,1.44-1.92h1.44c.24-.32,.48-.64,.72-.96h1.2c.24-.32,.48-.64,.72-.96h1.2c.64-.72,1.28-1.44,1.92-2.16h1.44c.18-.11,.23-.84,.48-.96h1.44c.53-.29,.91-1.62,1.44-1.92h1.44c.6-.31,.93-1.49,1.44-1.92,.68-.56,2.69-.73,3.6-1.2,.56-.64,1.12-1.28,1.68-1.92h1.2c.56-.64,1.12-1.28,1.68-1.92,.56-.08,1.12-.16,1.68-.24,.51-.43,.84-1.61,1.44-1.92h1.44c.53-.29,.91-1.63,1.44-1.92h1.44c.59-.3,.92-1.56,1.44-1.92,.56-.08,1.12-.16,1.68-.24,.88-.96,1.76-1.92,2.64-2.88h1.2l2.64-2.88h1.2c.64-.72,1.28-1.44,1.92-2.16h1.44c.16-.11,.3-.81,.48-.96,.88-.74,1.78-1.38,2.64-2.16,.08-.24,.16-.48,.24-.72h1.2c.38-.16,1.39-1.11,1.68-1.44,.6-.68,1.4-2.22,2.16-2.64h1.44c1.33-.68,2.21-2.88,3.36-3.84,.56-.08,1.12-.16,1.68-.24,1.44-1.52,2.88-3.04,4.32-4.56,.48-.48,.96-.96,1.44-1.44h1.2c1.2-1.2,2.4-2.4,3.6-3.6,2.4-2.48,4.8-4.96,7.2-7.44h1.2c1.2-1.28,2.4-2.56,3.6-3.84,3.07-3.07,6.55-5.53,8.64-9.6,2.64-2.56,5.28-5.12,7.92-7.68,1.04-1.04,2.08-2.08,3.12-3.12v-1.2c2-1.92,4-3.84,6-5.76,.08-.56,.16-1.12,.24-1.68,.96-1.15,3.16-2.03,3.84-3.36v-1.44c.24-.08,.48-.16,.72-.24,.82-.77,1.43-1.78,2.16-2.64,.32-.16,.64-.32,.96-.48,.08-.56,.16-1.12,.24-1.68,.24-.08,.48-.16,.72-.24,.78-.86,1.41-1.77,2.16-2.64,.15-.18,.85-.32,.96-.48v-1.44c.33-.65,1.51-.9,1.92-1.44,.08-.56,.16-1.12,.24-1.68,.96-.88,1.92-1.76,2.88-2.64v-1.2c.96-.88,1.92-1.76,2.88-2.64,.08-.56,.16-1.12,.24-1.68,.35-.52,1.62-.85,1.92-1.44v-1.44c.29-.53,1.63-.91,1.92-1.44v-1.44c.31-.6,1.53-.92,1.92-1.44,.08-.56,.16-1.12,.24-1.68,.64-.56,1.28-1.12,1.92-1.68v-1.2c.64-.56,1.28-1.12,1.92-1.68,.47-.92,.63-2.92,1.2-3.6,.43-.51,1.61-.84,1.92-1.44v-1.44c.29-.53,1.63-.91,1.92-1.44v-1.44c.12-.25,.84-.3,.96-.48v-1.44c.33-.65,1.5-.9,1.92-1.44,.08-.56,.16-1.12,.24-1.68,.32-.24,.64-.48,.96-.72v-1.2c.32-.24,.64-.48,.96-.72v-1.44c.36-.54,1.6-.81,1.92-1.44v-1.2c.15-.35,.82-.45,.96-.72v-1.2c.17-.4,.77-.45,.96-.72,.08-.56,.16-1.12,.24-1.68,.32-.24,.64-.48,.96-.72v-1.2c.32-.24,.64-.48,.96-.72v-1.2l.96-.72v-1.2c.32-.24,.64-.48,.96-.72,.08-.56,.16-1.12,.24-1.68l.72-.24v-1.2c.17-.4,.77-.45,.96-.72,.08-.56,.16-1.12,.24-1.68,.32-.24,.64-.48,.96-.72v-1.2c.32-.24,.64-.48,.96-.72v-1.2l.96-.72v-1.2c.32-.24,.64-.48,.96-.72v-1.2c.15-.35,.82-.45,.96-.72,.08-.56,.16-1.12,.24-1.68,.24-.08,.48-.16,.72-.24,.38-.54,.59-1.8,.96-2.4h.24v-2.16c.32-.24,.64-.48,.96-.72v-1.44c.11-.18,.84-.24,.96-.48v-1.44c.32-.16,.64-.32,.96-.48v-2.4c.12-.25,.84-.3,.96-.48v-1.44c.4-.32,.8-.64,1.2-.96-.08-.64-.16-1.28-.24-1.92h.24c.26-.53,.76-.56,.96-.96v-1.44c.32-.16,.64-.32,.96-.48v-2.4c.32-.24,.64-.48,.96-.72v-1.2c.32-.24,.64-.48,.96-.72v-2.16c.13-.35,.83-.46,.96-.72v-2.4c.18-.39,1.04-.5,1.2-.96-.08-.56-.16-1.12-.24-1.68,.13-.43,1.95-2.66,2.16-3.12v-2.4c.32-.16,.64-.32,.96-.48v-2.4c.11-.24,.86-.31,.96-.48v-3.36c.13-.35,.83-.46,.96-.72v-2.4c.13-.29,.79-.26,.96-.48,.6-.78-.24-1.36,0-2.16,.4-.4,.8-.8,1.2-1.2v-2.4c.1-.17,.85-.24,.96-.48v-3.36c.32-.24,.64-.48,.96-.72v-3.12c.32-.24,.64-.48,.96-.72v-3.36c.11-.24,.86-.31,.96-.48v-3.36c.4-.4,.8-.8,1.2-1.2-.08-.88-.16-1.76-.24-2.64,.4-.4,.8-.8,1.2-1.2v-3.36c.1-.17,.85-.24,.96-.48v-4.32l.96-.72v-4.32c.11-.24,.86-.31,.96-.48v-4.32c.13-.35,.84-.46,.96-.72v-5.28c.4-.4,.8-.8,1.2-1.2,.63-1.79-.81-4.37-.24-5.76,.25-.6,1.05-.54,1.2-1.44,.42-2.5-.71-5.27,.96-6.48-.07-2.53-.72-7.96,.96-8.88v-10.32c.32-.24,.64-.48,.96-.72v-53.28c0-2.12,.29-3.92-.96-4.8ZM274.77,652.77c-.16,.08-.32,.16-.48,.24-.08-.08-.16-.16-.24-.24,.08-.55,.11-.6,.24-.96,.24,.08,.48,.16,.72,.24-.08,.24-.16,.48-.24,.72Zm172.08-299.52c-5.03,18.49-11.67,33.87-21.6,47.28-9.73,13.14-23.13,25.56-37.2,34.32-2.13,1.33-4.32,2.04-6.48,3.36-2.65,1.62-5.71,3.51-8.64,4.8-8.96,3.95-18.99,7.45-28.56,10.56-1.52,.16-3.04,.32-4.56,.48-9.23,2.66-19.83,3.2-29.76,5.52-3.61,.84-7.41-.38-11.28,.48-12.25,2.72-29.53,1.46-43.92,1.44-5.12,0-9.53-.96-14.88-.96-1.98,0-5.02-.37-6.24,.48h-.48c-.78,4.1-.24,9.62-.24,14.16v27.12c0,29.99,.49,60.65-.24,90.24-.91,.95-1.45,2.48-2.64,3.12-1.81,.98-4.57-.04-6.96,.48-3.54,.77-8.47,.48-12.72,.48-13.94,0-28.61,0-43.68,0-5.71,0-19.19,.99-21.6-1.92-1.44-1.74-1.2-4.97-1.2-8.16V179.25c0-2.3-.45-5.57,.24-7.44,.38-1.03,1.35-1.78,1.92-2.64,8.92-1.06,19.74-1.01,29.04-1.2,5.19-.11,11.59,.78,16.32-.24,4.77-1.03,10.65,.72,15.12-.24,4.77-1.03,11.65,.77,16.32-.24h7.2c2.4-.53,5.81-.48,8.88-.48,2.22,0,5.75,.45,7.2-.48h26.64c4.71,0,10.46-.4,14.4,.48h6.96c.98,.22,2.69,.51,3.6,.72,3.04,.08,6.08,.16,9.12,.24,4.93,1.1,10.35,1.06,14.88,2.16,1.28,.08,2.56,.16,3.84,.24,2.87,.8,6.25,1.02,9.36,1.92,11.01,3.2,21.94,5.76,31.92,10.08,10.18,4.41,19.93,9.76,28.56,15.84,2.5,1.76,4.78,4.2,7.2,6,3.48,2.59,6.26,5.52,9.6,8.16,.67,.53,1.04,1.59,1.68,2.16,1.39,1.23,3.21,2.61,4.32,4.08,2.9,3.84,5.55,7.53,8.4,11.52,4.04,5.66,8.35,12.06,11.28,18.72,1.63,3.69,2.5,7.16,4.08,11.04,9.75,24.04,12.65,64.72,4.8,93.6Zm25.92-275.28h-.72c-.08-.75-.08-.38,0-.96h.72c.08,.08,.16,.16,.24,.24-.08,.24-.16,.48-.24,.72Zm97.44,104.16c.25-.19,.06-.09,.48-.24,.13,.37,.17,.4,.24,.96h-.96c.1-.49,.06-.46,.24-.72Zm132.48,168.48c-.96,.95-1.48,2.11-2.88,2.64-2.06,.78-5.71,.72-8.4,.48-.56-.08-1.12-.16-1.68-.24-2.7,.51-6.61-.41-9.6,.24-3.39,.74-7.32,.48-10.56,1.2h-2.64c-5.21,1.19-10.68,1.45-15.84,2.88-13.55,3.76-27.16,7.15-37.92,13.68-4.58,2.78-8.37,5.25-12,8.88l-2.64,2.64c-1.17,1.93-.48,9.42-.48,12.48v185.04c0,4.74,.76,11.27-1.44,13.92-1.99,2.4-9.44,1.44-13.68,1.44-11.81,0-23.78,0-36,0-8.62,0-17.69,.24-26.64,.24-3.3,0-8.6,.74-11.04-.48-4.89-2.45-3.36-12.51-3.36-19.68v-232.08c-1.35-6.26,.24-14.49-.72-20.88v-6.96c-.47-2.16-.21-5.36-.24-7.92-.03-2.48-.24-5.36-.24-8.16v-5.28c-.25-1.13-.46-3.11-.72-4.32v-6c-.77-3.54-.98-7.12-.96-11.04,.99-.97,1.66-2.4,3.12-2.88h13.68c4.46,.96,10.67,.24,15.6,.24h30.96c8.99,0,16.03-1.01,19.68,4.56,3.77,5.76,3.9,18.08,5.76,25.92,.63,2.67-.7,9.05,.48,11.04v.48c3.41-.32,6.55-5.82,8.64-7.92,6.1-6.14,13.49-11.78,20.64-16.8,12.13-8.53,26.36-15.31,42.24-19.92,6.2-1.8,12.86-2.08,19.44-3.6,2.26-.52,6.94,.27,8.64-.72,3.98-.03,8.17-.34,9.84,1.92,2.43,3.29,1.2,17.25,1.2,23.04,0,20.56,.31,41.76-.24,61.92Zm-344.64-62.88c-11.79-30.72-42.54-42.2-85.68-41.52-1.41,.88-9.2,.24-11.52,.24-9.02,0-19.34-.2-27.84,.72-.16,.3-.26,.5-.48,.72v124.8c0,3.45-.63,8.78,.72,11.04,2.89,0,6.89,.12,9.6,.72h24.96c4.88-.08,9.76-.16,14.64-.24,7.47-1.85,15.84-1.55,23.04-3.6,6.34-1.81,13.27-3.48,19.2-6,9.69-4.11,21.35-12.86,27.12-20.88,4.57-6.36,7.15-13.94,9.6-22.56,.16-2.08,.32-4.16,.48-6.24,.82-2.69,.72-6.54,.72-10.08,0-11.95-1.35-18.76-4.56-27.12Z"/><path class="b" d="M787.9,370.53v-10.32c-.32-.16-.64-.32-.96-.48v-8.4c-.32-.24-.64-.48-.96-.72v-6.24c-.4-.32-.8-.64-1.2-.96-.57-1.39,.86-3.97,.24-5.76l-1.2-1.2v-5.28c-.12-.26-.83-.37-.96-.72v-4.32c-.1-.17-.85-.24-.96-.48v-4.32l-.96-.72v-4.32c-.11-.24-.86-.31-.96-.48v-3.36c-.4-.4-.8-.8-1.2-1.2,.08-.88,.16-1.76,.24-2.64l-1.2-1.2v-3.36c-.1-.17-.85-.24-.96-.48v-3.36c-.32-.24-.64-.48-.96-.72v-3.12l-.96-.72v-3.36c-.11-.24-.86-.31-.96-.48v-2.4c-.4-.4-.8-.8-1.2-1.2-.23-.81,.6-1.39,0-2.16-.17-.21-.83-.2-.96-.48v-2.4c-.12-.26-.83-.37-.96-.72v-3.36c-.1-.17-.85-.24-.96-.48v-2.4c-.32-.16-.64-.32-.96-.48v-2.4c-.19-.44-2.04-2.71-2.16-3.12,.08-.56,.16-1.12,.24-1.68-.17-.46-1.02-.57-1.2-.96v-2.4c-.12-.26-.83-.37-.96-.72v-2.16c-.32-.24-.64-.48-.96-.72v-1.2l-.96-.72v-2.4c-.32-.16-.64-.32-.96-.48v-1.44c-.19-.39-1.04-.5-1.2-.96,.08-.64,.16-1.28,.24-1.92h-.24l-.96-.96v-1.44c-.11-.18-.84-.23-.96-.48v-2.4c-.32-.16-.64-.32-.96-.48v-1.44c-.12-.25-.84-.3-.96-.48v-1.44c-.32-.24-.64-.48-.96-.72v-2.16c-.32-.24-.64-.48-.96-.72-.08-.56-.16-1.12-.24-1.68-.19-.27-.79-.32-.96-.72v-1.2c-.24-.08-.48-.16-.72-.24-.08-.56-.16-1.12-.24-1.68-.32-.24-.64-.48-.96-.72v-1.2l-.96-.72v-1.2c-.32-.24-.64-.48-.96-.72v-1.2c-.32-.24-.64-.48-.96-.72-.08-.56-.16-1.12-.24-1.68-.19-.27-.79-.32-.96-.72v-1.2c-.14-.27-.81-.37-.96-.72v-1.2c-.32-.24-.64-.48-.96-.72v-1.2l-.96-.72v-1.2c-.32-.24-.64-.48-.96-.72v-1.2c-.32-.24-.64-.48-.96-.72-.08-.56-.16-1.12-.24-1.68-.19-.27-.79-.32-.96-.72v-1.2c-.14-.27-.81-.37-.96-.72v-1.2c-.32-.63-1.55-.9-1.92-1.44v-1.44c-.32-.24-.64-.48-.96-.72v-1.2c-.32-.24-.64-.48-.96-.72-.08-.56-.16-1.12-.24-1.68-.41-.54-1.59-.79-1.92-1.44v-1.44c-.11-.18-.84-.24-.96-.48v-1.44c-.29-.53-1.63-.91-1.92-1.44v-1.44c-.31-.6-1.49-.93-1.92-1.44-.56-.68-.73-2.69-1.2-3.6-.64-.56-1.28-1.12-1.92-1.68v-1.2c-.64-.56-1.28-1.12-1.92-1.68-.08-.56-.16-1.12-.24-1.68-.39-.52-1.61-.84-1.92-1.44v-1.44c-.29-.53-1.63-.91-1.92-1.44v-1.44c-.3-.59-1.56-.92-1.92-1.44-.08-.56-.16-1.12-.24-1.68-.96-.88-1.92-1.76-2.88-2.64v-1.2l-2.88-2.64c-.08-.56-.16-1.12-.24-1.68-.41-.54-1.59-.79-1.92-1.44v-1.44c-.1-.16-.81-.3-.96-.48-.74-.87-1.38-1.78-2.16-2.64-.24-.08-.48-.16-.72-.24-.08-.56-.16-1.12-.24-1.68-.32-.16-.64-.32-.96-.48-.73-.86-1.34-1.87-2.16-2.64-.24-.08-.48-.16-.72-.24v-1.44c-.68-1.33-2.88-2.21-3.84-3.36-.08-.56-.16-1.12-.24-1.68-2-1.92-4-3.84-6-5.76-.27-.53,.06-1.05-.24-1.44-3.6-3.52-7.2-7.04-10.8-10.56v-1.2c-1.28-1.2-2.56-2.4-3.84-3.6-3.07-3.07-5.53-6.55-9.6-8.64-2.4-2.48-4.8-4.96-7.2-7.44-1.2-1.2-2.4-2.4-3.6-3.6h-1.2c-.48-.48-.96-.96-1.44-1.44-1.44-1.52-2.88-3.04-4.32-4.56-.56-.08-1.12-.16-1.68-.24-1.15-.96-2.03-3.16-3.36-3.84h-1.44c-.76-.42-1.56-1.96-2.16-2.64-.29-.33-1.3-1.28-1.68-1.44h-1.2c-.08-.24-.16-.48-.24-.72-.86-.78-1.77-1.42-2.64-2.16-.18-.15-.32-.85-.48-.96h-1.44c-.64-.72-1.28-1.44-1.92-2.16h-1.2c-.88-.96-1.76-1.92-2.64-2.88h-1.2c-.88-.96-1.76-1.92-2.64-2.88-.56-.08-1.12-.16-1.68-.24-.52-.35-.85-1.62-1.44-1.92h-1.44c-.53-.29-.91-1.63-1.44-1.92h-1.44c-.6-.31-.93-1.49-1.44-1.92-.56-.08-1.12-.16-1.68-.24-.56-.64-1.12-1.28-1.68-1.92h-1.2c-.56-.64-1.12-1.28-1.68-1.92-.92-.47-2.92-.63-3.6-1.2-.51-.43-.84-1.61-1.44-1.92h-1.44c-.53-.29-.91-1.63-1.44-1.92h-1.44c-.25-.12-.3-.84-.48-.96h-1.44c-.64-.72-1.28-1.44-1.92-2.16h-1.2c-.24-.32-.48-.64-.72-.96h-1.2c-.24-.32-.48-.64-.72-.96h-1.44c-.54-.36-.81-1.6-1.44-1.92h-1.2c-.35-.15-.45-.82-.72-.96h-1.2c-.4-.4-.8-.8-1.2-1.2-7.26-3.21-13.61-6.67-20.88-9.84-.35-.15-.45-.82-.72-.96h-1.2c-.42-.18-.43-.73-.72-.96-.56-.08-1.12-.16-1.68-.24-.24-.32-.48-.64-.72-.96h-2.16c-.24-.32-.48-.64-.72-.96h-1.44c-.18-.11-.24-.84-.48-.96h-1.44c-.16-.32-.32-.64-.48-.96h-2.4c-.24-.32-.48-.64-.72-.96h-1.2c-.32-.4-.64-.8-.96-1.2h-2.4c-.17-.1-.25-.85-.48-.96h-1.44c-.16-.32-.32-.64-.48-.96h-2.4c-.24-.32-.48-.64-.72-.96h-1.2l-.72-.96h-2.16c-.35-.13-.46-.83-.72-.96h-2.16c-.4-.4-.8-.8-1.2-1.2h-2.16c-.24-.32-.48-.64-.72-.96h-1.2c-.24-.32-.48-.64-.72-.96h-2.4c-.16-.32-.32-.64-.48-.96h-2.4c-.24-.32-.48-.64-.72-.96h-3.12c-.35-.13-.46-.83-.72-.96h-2.16c-.4-.4-.8-.8-1.2-1.2h-2.16c-.24-.32-.48-.64-.72-.96h-2.16c-.24-.32-.48-.64-.72-.96h-3.36c-.24-.32-.48-.64-.72-.96h-3.12c-.24-.32-.48-.64-.72-.96h-3.36l-.72-.96h-3.12l-1.2-1.2h-3.12c-.24-.32-.48-.64-.72-.96h-3.12c-.24-.32-.48-.64-.72-.96h-4.32c-.24-.32-.48-.64-.72-.96h-4.32c-.24-.11-.31-.86-.48-.96h-4.32c-.24-.32-.48-.64-.72-.96h-5.28c-.4-.4-.8-.8-1.2-1.2h-6c-.77-.33-.47-.91-1.92-.96-2.32-.09-4.74,.44-5.76-.96-2.53,.07-7.96,.72-8.88-.96-3.16,.03-8.52,.7-10.8-.48v-.72h-57.84v.72c-.16,.16-.32,.32-.48,.48h-10.32c-.16,.32-.32,.64-.48,.96h-8.4c-.24,.32-.48,.64-.72,.96h-6.24c-.24,.32-.48,.64-.72,.96h-6c-.4,.4-.8,.8-1.2,1.2h-5.28c-.24,.32-.48,.64-.72,.96h-4.32c-.17,.1-.24,.85-.48,.96h-4.32c-.24,.32-.48,.64-.72,.96h-4.32c-.24,.32-.48,.64-.72,.96h-3.12c-.24,.32-.48,.64-.72,.96h-3.12c-.4,.4-.8,.8-1.2,1.2h-3.12l-.72,.96h-3.36c-.24,.32-.48,.64-.72,.96h-3.12c-.24,.32-.48,.64-.72,.96h-3.36c-.24,.32-.48,.64-.72,.96h-2.16c-.24,.32-.48,.64-.72,.96h-2.16c-.4,.4-.8,.8-1.2,1.2h-2.16c-.26,.13-.37,.83-.72,.96h-3.12c-.24,.32-.48,.64-.72,.96h-2.4c-.16,.32-.32,.64-.48,.96h-2.4c-.24,.32-.48,.64-.72,.96h-1.2c-.24,.32-.48,.64-.72,.96h-2.16c-.4,.4-.8,.8-1.2,1.2h-2.16c-.26,.13-.37,.83-.72,.96h-2.16l-.72,.96h-1.2c-.24,.32-.48,.64-.72,.96h-2.4c-.16,.32-.32,.64-.48,.96h-1.44c-.24,.12-.31,.86-.48,.96h-2.4c-.32,.4-.64,.8-.96,1.2h-1.2c-.24,.32-.48,.64-.72,.96h-2.4c-.16,.32-.32,.64-.48,.96h-1.44c-.25,.12-.3,.84-.48,.96h-1.44c-.24,.32-.48,.64-.72,.96h-2.16c-.24,.32-.48,.64-.72,.96-.56,.08-1.12,.16-1.68,.24-.29,.23-.3,.78-.72,.96h-1.2c-.08,.24-.16,.48-.24,.72-.56,.08-1.12,.16-1.68,.24l-.72,.96h-1.2c-.24,.32-.48,.64-.72,.96h-1.2c-.24,.32-.48,.64-.72,.96h-1.2c-.24,.32-.48,.64-.72,.96-.56,.08-1.12,.16-1.68,.24-.29,.23-.3,.78-.72,.96h-1.2c-.27,.14-.37,.81-.72,.96h-1.2l-.72,.96h-1.2c-.24,.32-.48,.64-.72,.96h-1.2c-.24,.32-.48,.64-.72,.96h-1.2c-.24,.32-.48,.64-.72,.96-.56,.08-1.12,.16-1.68,.24-.29,.23-.3,.78-.72,.96h-1.2c-.27,.14-.37,.81-.72,.96h-1.2c-.63,.32-.9,1.55-1.44,1.92h-1.44c-.24,.32-.48,.64-.72,.96h-1.2c-.24,.32-.48,.64-.72,.96h-1.2c-.64,.72-1.28,1.44-1.92,2.16h-1.44c-.18,.11-.23,.84-.48,.96h-1.44c-.53,.29-.91,1.62-1.44,1.92h-1.44c-.6,.31-.93,1.49-1.44,1.92-.68,.56-2.69,.73-3.6,1.2-.56,.64-1.12,1.28-1.68,1.92h-1.2l-1.68,1.92c-.56,.08-1.12,.16-1.68,.24-.51,.43-.84,1.61-1.44,1.92h-1.44c-.53,.29-.91,1.63-1.44,1.92h-1.44c-.59,.3-.92,1.56-1.44,1.92-.56,.08-1.12,.16-1.68,.24-.88,.96-1.76,1.92-2.64,2.88h-1.2c-.88,.96-1.76,1.92-2.64,2.88h-1.2c-.64,.72-1.28,1.44-1.92,2.16h-1.44c-.16,.11-.3,.81-.48,.96-.87,.74-1.78,1.38-2.64,2.16-.08,.24-.16,.48-.24,.72h-1.2c-.38,.16-1.39,1.11-1.68,1.44-.6,.68-1.4,2.22-2.16,2.64h-1.44c-1.33,.68-2.21,2.88-3.36,3.84-.56,.08-1.12,.16-1.68,.24-1.44,1.52-2.88,3.04-4.32,4.56-.48,.48-.96,.96-1.44,1.44h-1.2l-3.6,3.6c-2.4,2.48-4.8,4.96-7.2,7.44h-1.2c-1.2,1.28-2.4,2.56-3.6,3.84-3.07,3.07-6.55,5.53-8.64,9.6-2.64,2.56-5.28,5.12-7.92,7.68-1.04,1.04-2.08,2.08-3.12,3.12v1.2c-2,1.92-4,3.84-6,5.76-.08,.56-.16,1.12-.24,1.68-.96,1.15-3.16,2.03-3.84,3.36v1.44l-.72,.24c-.82,.77-1.43,1.78-2.16,2.64-.32,.16-.64,.32-.96,.48-.08,.56-.16,1.12-.24,1.68-.24,.08-.48,.16-.72,.24-.78,.86-1.41,1.77-2.16,2.64-.15,.18-.85,.32-.96,.48v1.44c-.33,.65-1.51,.9-1.92,1.44-.08,.56-.16,1.12-.24,1.68l-2.88,2.64v1.2c-.96,.88-1.92,1.76-2.88,2.64-.08,.56-.16,1.12-.24,1.68-.35,.52-1.62,.85-1.92,1.44v1.44c-.29,.53-1.63,.91-1.92,1.44v1.44c-.31,.6-1.53,.92-1.92,1.44-.08,.56-.16,1.12-.24,1.68-.64,.56-1.28,1.12-1.92,1.68v1.2c-.64,.56-1.28,1.12-1.92,1.68-.47,.92-.63,2.92-1.2,3.6-.43,.51-1.61,.84-1.92,1.44v1.44c-.29,.53-1.63,.91-1.92,1.44v1.44c-.12,.25-.84,.3-.96,.48v1.44c-.33,.65-1.5,.9-1.92,1.44-.08,.56-.16,1.12-.24,1.68-.32,.24-.64,.48-.96,.72v1.2c-.32,.24-.64,.48-.96,.72v1.44c-.36,.54-1.6,.81-1.92,1.44v1.2c-.15,.35-.82,.45-.96,.72v1.2c-.17,.4-.77,.45-.96,.72-.08,.56-.16,1.12-.24,1.68-.32,.24-.64,.48-.96,.72v1.2c-.32,.24-.64,.48-.96,.72v1.2c-.32,.24-.64,.48-.96,.72v1.2c-.32,.24-.64,.48-.96,.72-.08,.56-.16,1.12-.24,1.68-.24,.08-.48,.16-.72,.24v1.2c-.17,.4-.77,.45-.96,.72-.08,.56-.16,1.12-.24,1.68-.32,.24-.64,.48-.96,.72v1.2c-.32,.24-.64,.48-.96,.72v1.2c-.32,.24-.64,.48-.96,.72v1.2c-.32,.24-.64,.48-.96,.72v1.2c-.15,.35-.82,.45-.96,.72-.08,.56-.16,1.12-.24,1.68-.24,.08-.48,.16-.72,.24-.38,.54-.59,1.8-.96,2.4h-.24v2.16c-.32,.24-.64,.48-.96,.72v1.44c-.11,.18-.84,.24-.96,.48v1.44c-.32,.16-.64,.32-.96,.48v2.4c-.12,.25-.84,.3-.96,.48v1.44c-.4,.32-.8,.64-1.2,.96,.08,.64,.16,1.28,.24,1.92h-.24c-.26,.53-.76,.56-.96,.96v1.44c-.32,.16-.64,.32-.96,.48v2.4c-.32,.24-.64,.48-.96,.72v1.2c-.32,.24-.64,.48-.96,.72v2.16c-.13,.35-.83,.46-.96,.72v2.4c-.18,.39-1.04,.5-1.2,.96,.08,.56,.16,1.12,.24,1.68-.13,.43-1.95,2.66-2.16,3.12v2.4c-.32,.16-.64,.32-.96,.48v2.4c-.11,.24-.86,.31-.96,.48v3.36c-.13,.35-.83,.46-.96,.72v2.4c-.13,.29-.79,.26-.96,.48-.6,.78,.24,1.36,0,2.16-.4,.4-.8,.8-1.2,1.2v2.4c-.1,.17-.85,.24-.96,.48v3.36c-.32,.24-.64,.48-.96,.72v3.12c-.32,.24-.64,.48-.96,.72v3.36c-.11,.24-.86,.31-.96,.48v3.36c-.4,.4-.8,.8-1.2,1.2,.08,.88,.16,1.76,.24,2.64-.4,.4-.8,.8-1.2,1.2v3.36c-.1,.17-.85,.24-.96,.48v4.32c-.32,.24-.64,.48-.96,.72v4.32c-.11,.24-.86,.31-.96,.48v4.32c-.13,.35-.84,.46-.96,.72v5.28c-.4,.4-.8,.8-1.2,1.2-.63,1.79,.81,4.37,.24,5.76-.25,.6-1.05,.54-1.2,1.44-.42,2.5,.71,5.27-.96,6.48,.07,2.53,.72,7.96-.96,8.88,.03,3.16,.7,8.52-.48,10.8h-.72v57.84c.76,.14,.7,.21,1.2,.48v10.32c.32,.16,.64,.32,.96,.48v8.4c.32,.24,.64,.48,.96,.72v6.24c.4,.32,.8,.64,1.2,.96,.57,1.39-.86,3.97-.24,5.76,.4,.4,.8,.8,1.2,1.2v5.28c.12,.26,.83,.37,.96,.72v4.32c.1,.17,.85,.24,.96,.48v4.32c.32,.24,.64,.48,.96,.72v4.32c.11,.24,.86,.31,.96,.48v3.36c.4,.4,.8,.8,1.2,1.2-.08,.88-.16,1.76-.24,2.64,.4,.4,.8,.8,1.2,1.2v3.36c.1,.17,.85,.24,.96,.48v3.36c.32,.24,.64,.48,.96,.72v3.12c.32,.24,.64,.48,.96,.72v3.36c.11,.24,.86,.31,.96,.48v2.4c.4,.4,.8,.8,1.2,1.2,.23,.81-.6,1.39,0,2.16,.17,.21,.83,.2,.96,.48v2.4c.12,.26,.83,.37,.96,.72v3.36c.1,.17,.85,.24,.96,.48v2.4c.32,.16,.64,.32,.96,.48v2.4c.19,.44,2.04,2.71,2.16,3.12-.08,.56-.16,1.12-.24,1.68,.17,.46,1.02,.57,1.2,.96v2.4c.12,.26,.83,.37,.96,.72v2.16c.32,.24,.64,.48,.96,.72v1.2c.32,.24,.64,.48,.96,.72v2.4c.32,.16,.64,.32,.96,.48v1.44c.19,.39,1.04,.5,1.2,.96-.08,.64-.16,1.28-.24,1.92h.24c.32,.32,.64,.64,.96,.96v1.44c.11,.18,.84,.23,.96,.48v2.4c.32,.16,.64,.32,.96,.48v1.44c.12,.25,.84,.3,.96,.48v1.44c.32,.24,.64,.48,.96,.72v2.16c.32,.24,.64,.48,.96,.72,.08,.56,.16,1.12,.24,1.68,.19,.27,.79,.32,.96,.72v1.2l.72,.24c.08,.56,.16,1.12,.24,1.68,.32,.24,.64,.48,.96,.72v1.2c.32,.24,.64,.48,.96,.72v1.2c.32,.24,.64,.48,.96,.72v1.2c.32,.24,.64,.48,.96,.72,.08,.56,.16,1.12,.24,1.68,.19,.27,.79,.32,.96,.72v1.2c.14,.27,.81,.37,.96,.72v1.2c.32,.24,.64,.48,.96,.72v1.2c.32,.24,.64,.48,.96,.72v1.2c.32,.24,.64,.48,.96,.72v1.2c.32,.24,.64,.48,.96,.72,.08,.56,.16,1.12,.24,1.68,.19,.27,.79,.32,.96,.72v1.2c.14,.27,.81,.37,.96,.72v1.2c.32,.63,1.55,.9,1.92,1.44v1.44c.32,.24,.64,.48,.96,.72v1.2c.32,.24,.64,.48,.96,.72,.08,.56,.16,1.12,.24,1.68,.41,.54,1.59,.79,1.92,1.44v1.44c.11,.18,.84,.24,.96,.48v1.44c.29,.53,1.63,.91,1.92,1.44v1.44c.31,.6,1.49,.93,1.92,1.44,.56,.68,.73,2.69,1.2,3.6,.64,.56,1.28,1.12,1.92,1.68v1.2c.64,.56,1.28,1.12,1.92,1.68,.08,.56,.16,1.12,.24,1.68,.39,.52,1.61,.84,1.92,1.44v1.44c.29,.53,1.63,.91,1.92,1.44v1.44c.3,.59,1.56,.92,1.92,1.44,.08,.56,.16,1.12,.24,1.68,.96,.88,1.92,1.76,2.88,2.64v1.2c.96,.88,1.92,1.76,2.88,2.64,.08,.56,.16,1.12,.24,1.68,.41,.54,1.59,.79,1.92,1.44v1.44c.1,.16,.81,.3,.96,.48,.74,.87,1.38,1.78,2.16,2.64,.24,.08,.48,.16,.72,.24,.08,.56,.16,1.12,.24,1.68,.32,.16,.64,.32,.96,.48,.73,.86,1.34,1.87,2.16,2.64,.24,.08,.48,.16,.72,.24v1.44c.68,1.33,2.88,2.22,3.84,3.36,.08,.56,.16,1.12,.24,1.68,2,1.92,4,3.84,6,5.76,.27,.53-.06,1.05,.24,1.44,3.6,3.52,7.2,7.04,10.8,10.56v1.2l3.84,3.6c3.07,3.07,5.53,6.55,9.6,8.64,2.4,2.48,4.8,4.96,7.2,7.44l3.6,3.6h1.2c.48,.48,.96,.96,1.44,1.44,1.44,1.52,2.88,3.04,4.32,4.56,.56,.08,1.12,.16,1.68,.24,1.15,.96,2.03,3.16,3.36,3.84h1.44c.76,.42,1.56,1.96,2.16,2.64,.29,.33,1.3,1.28,1.68,1.44h1.2c.08,.24,.16,.48,.24,.72,.86,.78,1.77,1.42,2.64,2.16,.18,.15,.32,.85,.48,.96h1.44c.64,.72,1.28,1.44,1.92,2.16h1.2c.88,.96,1.76,1.92,2.64,2.88h1.2c.88,.96,1.76,1.92,2.64,2.88,.56,.08,1.12,.16,1.68,.24,.52,.35,.85,1.62,1.44,1.92h1.44c.53,.29,.91,1.63,1.44,1.92h1.44c.6,.31,.93,1.49,1.44,1.92,.56,.08,1.12,.16,1.68,.24,.56,.64,1.12,1.28,1.68,1.92h1.2c.56,.64,1.12,1.28,1.68,1.92,.92,.47,2.92,.63,3.6,1.2,.51,.43,.84,1.61,1.44,1.92h1.44c.53,.29,.91,1.63,1.44,1.92h1.44c.25,.12,.3,.84,.48,.96h1.44c.64,.72,1.28,1.44,1.92,2.16h1.2c.24,.32,.48,.64,.72,.96h1.2c.24,.32,.48,.64,.72,.96h1.44c.54,.36,.81,1.6,1.44,1.92h1.2c.35,.15,.45,.82,.72,.96h1.2c.4,.4,.8,.8,1.2,1.2,7.26,3.21,13.61,6.67,20.88,9.84,.35,.15,.45,.82,.72,.96h1.2c.42,.18,.43,.73,.72,.96,.56,.08,1.12,.16,1.68,.24l.72,.96h2.16c.24,.32,.48,.64,.72,.96h1.44c.18,.11,.24,.84,.48,.96h1.44c.16,.32,.32,.64,.48,.96h2.4c.24,.32,.48,.64,.72,.96h1.2c.32,.4,.64,.8,.96,1.2h2.4c.17,.1,.25,.85,.48,.96h1.44c.16,.32,.32,.64,.48,.96h2.4c.24,.32,.48,.64,.72,.96h1.2c.24,.32,.48,.64,.72,.96h2.16c.35,.13,.46,.83,.72,.96h2.16c.4,.4,.8,.8,1.2,1.2h2.16c.24,.32,.48,.64,.72,.96h1.2c.24,.32,.48,.64,.72,.96h2.4c.16,.32,.32,.64,.48,.96h2.4c.24,.32,.48,.64,.72,.96h3.12c.35,.13,.46,.83,.72,.96h2.16c.4,.4,.8,.8,1.2,1.2h2.16c.24,.32,.48,.64,.72,.96h2.16c.24,.32,.48,.64,.72,.96h3.36c.24,.32,.48,.64,.72,.96h3.12c.24,.32,.48,.64,.72,.96h3.36c.24,.32,.48,.64,.72,.96h3.12c.4,.4,.8,.8,1.2,1.2h3.12l.72,.96h3.12c.24,.32,.48,.64,.72,.96h4.32c.24,.32,.48,.64,.72,.96h4.32c.24,.11,.31,.86,.48,.96h4.32c.24,.32,.48,.64,.72,.96h5.28c.4,.4,.8,.8,1.2,1.2h6c.77,.33,.47,.91,1.92,.96,2.32,.09,4.74-.44,5.76,.96,2.53-.07,7.96-.72,8.88,.96h10.32c.24,.32,.48,.64,.72,.96h53.28c2.12,0,3.92,.29,4.8-.96h10.32c.16-.32,.32-.64,.48-.96h8.4c.24-.32,.48-.64,.72-.96h6.24l.72-.96h6c.4-.4,.8-.8,1.2-1.2h5.28c.24-.32,.48-.64,.72-.96h4.32c.17-.1,.24-.85,.48-.96h4.32c.24-.32,.48-.64,.72-.96h4.32c.24-.32,.48-.64,.72-.96h3.12c.24-.32,.48-.64,.72-.96h3.12l1.2-1.2h3.12c.24-.32,.48-.64,.72-.96h3.36c.24-.32,.48-.64,.72-.96h3.12c.24-.32,.48-.64,.72-.96h3.36c.24-.32,.48-.64,.72-.96h2.16l.72-.96h2.16c.4-.4,.8-.8,1.2-1.2h2.16c.26-.13,.37-.83,.72-.96h3.12c.24-.32,.48-.64,.72-.96h2.4c.16-.32,.32-.64,.48-.96h2.4c.24-.32,.48-.64,.72-.96h1.2l.72-.96h2.16c.4-.4,.8-.8,1.2-1.2h2.16c.26-.13,.37-.83,.72-.96h2.16c.24-.32,.48-.64,.72-.96h1.2c.24-.32,.48-.64,.72-.96h2.4c.16-.32,.32-.64,.48-.96h1.44c.24-.12,.31-.86,.48-.96h2.4c.32-.4,.64-.8,.96-1.2h1.2c.24-.32,.48-.64,.72-.96h2.4c.16-.32,.32-.64,.48-.96h1.44c.25-.12,.3-.84,.48-.96h1.44c.24-.32,.48-.64,.72-.96h2.16c.24-.32,.48-.64,.72-.96,.56-.08,1.12-.16,1.68-.24,.29-.23,.3-.78,.72-.96h1.2c.08-.24,.16-.48,.24-.72,.56-.08,1.12-.16,1.68-.24,.24-.32,.48-.64,.72-.96h1.2c.24-.32,.48-.64,.72-.96h1.2c.24-.32,.48-.64,.72-.96h1.2c.24-.32,.48-.64,.72-.96,.56-.08,1.12-.16,1.68-.24,.29-.23,.3-.78,.72-.96h1.2c.27-.14,.37-.81,.72-.96h1.2c.24-.32,.48-.64,.72-.96h1.2c.24-.32,.48-.64,.72-.96h1.2c.24-.32,.48-.64,.72-.96h1.2c.24-.32,.48-.64,.72-.96,.56-.08,1.12-.16,1.68-.24,.29-.23,.3-.78,.72-.96h1.2c.27-.14,.37-.81,.72-.96h1.2c.63-.32,.9-1.55,1.44-1.92h1.44c.24-.32,.48-.64,.72-.96h1.2l.72-.96h1.2c.64-.72,1.28-1.44,1.92-2.16h1.44c.18-.11,.23-.84,.48-.96h1.44c.53-.29,.91-1.62,1.44-1.92h1.44c.6-.31,.93-1.49,1.44-1.92,.68-.56,2.69-.73,3.6-1.2,.56-.64,1.12-1.28,1.68-1.92h1.2c.56-.64,1.12-1.28,1.68-1.92,.56-.08,1.12-.16,1.68-.24,.51-.43,.84-1.61,1.44-1.92h1.44c.53-.29,.91-1.63,1.44-1.92h1.44c.59-.3,.92-1.56,1.44-1.92,.56-.08,1.12-.16,1.68-.24,.88-.96,1.76-1.92,2.64-2.88h1.2l2.64-2.88h1.2c.64-.72,1.28-1.44,1.92-2.16h1.44c.16-.11,.3-.81,.48-.96,.88-.74,1.78-1.38,2.64-2.16,.08-.24,.16-.48,.24-.72h1.2c.38-.16,1.39-1.11,1.68-1.44,.6-.68,1.4-2.22,2.16-2.64h1.44c1.33-.68,2.21-2.88,3.36-3.84,.56-.08,1.12-.16,1.68-.24,1.44-1.52,2.88-3.04,4.32-4.56,.48-.48,.96-.96,1.44-1.44h1.2c1.2-1.2,2.4-2.4,3.6-3.6,2.4-2.48,4.8-4.96,7.2-7.44h1.2c1.2-1.28,2.4-2.56,3.6-3.84,3.07-3.07,6.55-5.53,8.64-9.6,2.64-2.56,5.28-5.12,7.92-7.68,1.04-1.04,2.08-2.08,3.12-3.12v-1.2c2-1.92,4-3.84,6-5.76,.08-.56,.16-1.12,.24-1.68,.96-1.15,3.16-2.03,3.84-3.36v-1.44c.24-.08,.48-.16,.72-.24,.82-.77,1.43-1.78,2.16-2.64,.32-.16,.64-.32,.96-.48,.08-.56,.16-1.12,.24-1.68,.24-.08,.48-.16,.72-.24,.78-.86,1.41-1.77,2.16-2.64,.15-.18,.85-.32,.96-.48v-1.44c.33-.65,1.51-.9,1.92-1.44,.08-.56,.16-1.12,.24-1.68,.96-.88,1.92-1.76,2.88-2.64v-1.2c.96-.88,1.92-1.76,2.88-2.64,.08-.56,.16-1.12,.24-1.68,.35-.52,1.62-.85,1.92-1.44v-1.44c.29-.53,1.63-.91,1.92-1.44v-1.44c.31-.6,1.53-.92,1.92-1.44,.08-.56,.16-1.12,.24-1.68,.64-.56,1.28-1.12,1.92-1.68v-1.2c.64-.56,1.28-1.12,1.92-1.68,.47-.92,.63-2.92,1.2-3.6,.43-.51,1.61-.84,1.92-1.44v-1.44c.29-.53,1.63-.91,1.92-1.44v-1.44c.12-.25,.84-.3,.96-.48v-1.44c.33-.65,1.5-.9,1.92-1.44,.08-.56,.16-1.12,.24-1.68,.32-.24,.64-.48,.96-.72v-1.2c.32-.24,.64-.48,.96-.72v-1.44c.36-.54,1.6-.81,1.92-1.44v-1.2c.15-.35,.82-.45,.96-.72v-1.2c.17-.4,.77-.45,.96-.72,.08-.56,.16-1.12,.24-1.68,.32-.24,.64-.48,.96-.72v-1.2c.32-.24,.64-.48,.96-.72v-1.2l.96-.72v-1.2c.32-.24,.64-.48,.96-.72,.08-.56,.16-1.12,.24-1.68l.72-.24v-1.2c.17-.4,.77-.45,.96-.72,.08-.56,.16-1.12,.24-1.68,.32-.24,.64-.48,.96-.72v-1.2c.32-.24,.64-.48,.96-.72v-1.2l.96-.72v-1.2c.32-.24,.64-.48,.96-.72v-1.2c.15-.35,.82-.45,.96-.72,.08-.56,.16-1.12,.24-1.68,.24-.08,.48-.16,.72-.24,.38-.54,.59-1.8,.96-2.4h.24v-2.16c.32-.24,.64-.48,.96-.72v-1.44c.11-.18,.84-.24,.96-.48v-1.44c.32-.16,.64-.32,.96-.48v-2.4c.12-.25,.84-.3,.96-.48v-1.44c.4-.32,.8-.64,1.2-.96-.08-.64-.16-1.28-.24-1.92h.24c.26-.53,.76-.56,.96-.96v-1.44c.32-.16,.64-.32,.96-.48v-2.4c.32-.24,.64-.48,.96-.72v-1.2c.32-.24,.64-.48,.96-.72v-2.16c.13-.35,.83-.46,.96-.72v-2.4c.18-.39,1.04-.5,1.2-.96-.08-.56-.16-1.12-.24-1.68,.13-.43,1.95-2.66,2.16-3.12v-2.4c.32-.16,.64-.32,.96-.48v-2.4c.11-.24,.86-.31,.96-.48v-3.36c.13-.35,.83-.46,.96-.72v-2.4c.13-.29,.79-.26,.96-.48,.6-.78-.24-1.36,0-2.16,.4-.4,.8-.8,1.2-1.2v-2.4c.1-.17,.85-.24,.96-.48v-3.36c.32-.24,.64-.48,.96-.72v-3.12c.32-.24,.64-.48,.96-.72v-3.36c.11-.24,.86-.31,.96-.48v-3.36c.4-.4,.8-.8,1.2-1.2-.08-.88-.16-1.76-.24-2.64,.4-.4,.8-.8,1.2-1.2v-3.36c.1-.17,.85-.24,.96-.48v-4.32l.96-.72v-4.32c.11-.24,.86-.31,.96-.48v-4.32c.13-.35,.84-.46,.96-.72v-5.28c.4-.4,.8-.8,1.2-1.2,.63-1.79-.81-4.37-.24-5.76,.25-.6,1.05-.54,1.2-1.44,.42-2.5-.71-5.27,.96-6.48-.07-2.53-.72-7.96,.96-8.88v-10.32c.32-.24,.64-.48,.96-.72v-53.28c0-2.12,.29-3.92-.96-4.8ZM274.77,652.77c-.16,.08-.32,.16-.48,.24-.08-.08-.16-.16-.24-.24,.08-.55,.11-.6,.24-.96,.24,.08,.48,.16,.72,.24-.08,.24-.16,.48-.24,.72Zm172.08-299.52c-5.03,18.49-11.67,33.87-21.6,47.28-9.73,13.14-23.13,25.56-37.2,34.32-2.13,1.33-4.32,2.04-6.48,3.36-2.65,1.62-5.71,3.51-8.64,4.8-8.96,3.95-18.99,7.45-28.56,10.56-1.52,.16-3.04,.32-4.56,.48-9.23,2.66-19.83,3.2-29.76,5.52-3.61,.84-7.41-.38-11.28,.48-12.25,2.72-29.53,1.46-43.92,1.44-5.12,0-9.53-.96-14.88-.96-1.98,0-5.02-.37-6.24,.48h-.48c-.78,4.1-.24,9.62-.24,14.16v27.12c0,29.99,.49,60.65-.24,90.24-.91,.95-1.45,2.48-2.64,3.12-1.81,.98-4.57-.04-6.96,.48-3.54,.77-8.47,.48-12.72,.48-13.94,0-28.61,0-43.68,0-5.71,0-19.19,.99-21.6-1.92-1.44-1.74-1.2-4.97-1.2-8.16V179.25c0-2.3-.45-5.57,.24-7.44,.38-1.03,1.35-1.78,1.92-2.64,8.92-1.06,19.74-1.01,29.04-1.2,5.19-.11,11.59,.78,16.32-.24,4.77-1.03,10.65,.72,15.12-.24,4.77-1.03,11.65,.77,16.32-.24h7.2c2.4-.53,5.81-.48,8.88-.48,2.22,0,5.75,.45,7.2-.48h26.64c4.71,0,10.46-.4,14.4,.48h6.96c.98,.22,2.69,.51,3.6,.72,3.04,.08,6.08,.16,9.12,.24,4.93,1.1,10.35,1.06,14.88,2.16,1.28,.08,2.56,.16,3.84,.24,2.87,.8,6.25,1.02,9.36,1.92,11.01,3.2,21.94,5.76,31.92,10.08,10.18,4.41,19.93,9.76,28.56,15.84,2.5,1.76,4.78,4.2,7.2,6,3.48,2.59,6.26,5.52,9.6,8.16,.67,.53,1.04,1.59,1.68,2.16,1.39,1.23,3.21,2.61,4.32,4.08,2.9,3.84,5.55,7.53,8.4,11.52,4.04,5.66,8.35,12.06,11.28,18.72,1.63,3.69,2.5,7.16,4.08,11.04,9.75,24.04,12.65,64.72,4.8,93.6Zm25.92-275.28h-.72c-.08-.75-.08-.38,0-.96h.72c.08,.08,.16,.16,.24,.24l-.24,.72Zm97.44,104.16c.25-.19,.06-.09,.48-.24,.13,.37,.17,.4,.24,.96h-.96c.1-.49,.06-.46,.24-.72Zm132.48,168.48c-.96,.95-1.48,2.11-2.88,2.64-2.06,.78-5.71,.72-8.4,.48-.56-.08-1.12-.16-1.68-.24-2.7,.51-6.61-.41-9.6,.24-3.39,.74-7.32,.48-10.56,1.2h-2.64c-5.21,1.19-10.68,1.45-15.84,2.88-13.55,3.76-27.16,7.15-37.92,13.68-4.58,2.78-8.37,5.25-12,8.88l-2.64,2.64c-1.17,1.93-.48,9.42-.48,12.48v185.04c0,4.74,.76,11.27-1.44,13.92-1.99,2.4-9.44,1.44-13.68,1.44-11.8,0-23.78,0-36,0-8.62,0-17.69,.24-26.64,.24-3.3,0-8.6,.74-11.04-.48-4.89-2.45-3.36-12.51-3.36-19.68v-232.08c-1.35-6.26,.24-14.49-.72-20.88v-6.96c-.47-2.16-.21-5.36-.24-7.92-.03-2.48-.24-5.36-.24-8.16v-5.28c-.25-1.13-.46-3.11-.72-4.32v-6c-.77-3.54-.98-7.12-.96-11.04,.99-.97,1.66-2.4,3.12-2.88h13.68c4.46,.96,10.67,.24,15.6,.24h30.96c8.99,0,16.03-1.01,19.68,4.56,3.77,5.76,3.9,18.08,5.76,25.92,.63,2.67-.7,9.05,.48,11.04v.48c3.41-.32,6.55-5.82,8.64-7.92,6.1-6.14,13.49-11.78,20.64-16.8,12.13-8.53,26.36-15.31,42.24-19.92,6.2-1.8,12.86-2.08,19.44-3.6,2.26-.52,6.94,.27,8.64-.72,3.98-.03,8.17-.34,9.84,1.92,2.43,3.29,1.2,17.25,1.2,23.04,0,20.56,.31,41.76-.24,61.92Zm-344.64-62.88c-11.79-30.72-42.54-42.2-85.68-41.52-1.41,.88-9.2,.24-11.52,.24-9.02,0-19.34-.2-27.84,.72-.16,.3-.26,.5-.48,.72v124.8c0,3.45-.63,8.78,.72,11.04,2.89,0,6.89,.12,9.6,.72h24.96c4.88-.08,9.76-.16,14.64-.24,7.47-1.85,15.84-1.55,23.04-3.6,6.34-1.81,13.27-3.48,19.2-6,9.69-4.11,21.35-12.86,27.12-20.88,4.57-6.36,7.15-13.94,9.6-22.56,.16-2.08,.32-4.16,.48-6.24,.82-2.69,.72-6.54,.72-10.08,0-11.95-1.35-18.76-4.56-27.12Z"/><g><path class="c" d="M300.93,273.1c-15.02-6.09-31.25-8.52-47.89-8.12-10.55,0-19.89,0-27.6,.41-8.12-.41-13.8,0-16.64,.41h0v136.37c5.68,.41,10.96,.81,15.83,.81h21.51c15.83,0,31.66-2.44,46.67-7.31,12.99-3.65,24.35-11.36,33.28-21.51,8.52-10.15,12.58-23.95,12.58-41.8,.41-12.58-2.84-25.16-9.34-36.12-6.9-10.55-16.64-18.67-28.41-23.13Z"/><path class="c" d="M399.96,10.91C185.09,10.91,10.91,185.09,10.91,399.96s174.19,389.05,389.05,389.05,389.05-174.19,389.05-389.05S614.83,10.91,399.96,10.91Zm2.84,405.47c-16.23,22.73-38.96,39.78-65.34,49.52-27.6,10.15-58.04,13.8-91.32,13.8-9.74,0-16.23,0-20.29-.41-4.06-.41-9.74-.41-17.45-.41v130.28c.41,2.84-1.62,5.28-4.46,5.68H125.19c-3.25,0-4.87-1.62-4.87-5.28V191.93c0-2.84,1.22-4.46,4.06-4.46,6.9,0,13.39,0,22.73-.41,9.74-.41,19.89-.41,30.85-.81,10.96-.41,22.73-.41,35.31-.81,12.58-.41,24.76-.41,36.93-.41,33.28,0,60.88,4.06,83.61,12.58,20.29,6.9,38.96,18.26,54.39,33.28,12.99,12.99,23.13,28.82,29.63,46.27,6.09,17.05,9.33,34.5,9.33,52.76,0,34.9-8.12,63.72-24.35,86.45Zm270.31-44.24c-14.61-.41-29.63,.81-43.83,4.06-11.77,2.44-23.13,6.09-34.09,10.96-7.71,3.65-15.02,8.52-20.7,15.02v206.99c0,4.06-1.62,5.68-5.28,5.68h-79.96c-3.25,.41-6.09-1.62-6.49-4.87v-226.48c0-9.74,0-19.89-.41-30.44-.41-10.55-.41-21.11-.81-31.66,0-9.33-.81-18.26-1.62-27.6-.41-2.03,.81-4.06,2.84-4.46,0-.41,.81-.41,1.22,0h71.03c4.06,0,7.31,2.84,8.52,6.49,1.22,3.25,2.03,6.49,2.44,10.15,.81,4.06,1.62,8.52,2.03,12.58,.41,4.46,.81,9.34,.81,14.61,12.18-14.21,26.79-25.98,43.43-34.9,18.67-10.55,40.18-15.83,61.69-15.83,2.84-.41,5.28,1.62,5.68,4.46v80.77c0,3.25-2.03,4.46-6.49,4.46Z"/></g></svg>