<?xml version="1.0" encoding="UTF-8"?><svg id="uuid-c3cbf72f-2590-4c01-83c2-faa29eb98b3d" xmlns="http://www.w3.org/2000/svg" viewBox="0 0 799.92 799.92"><defs><style>.uuid-18669e65-5a6b-4e9c-85ea-37908e903926{fill:#1c4177;fill-rule:evenodd;}.uuid-3eb578d0-e836-466c-8d8e-4b54533a17c9{fill:#fff;font-family:LavaDevanagari-Bold, 'Lava Devanagari';font-size:465.39px;}</style></defs><path class="uuid-18669e65-5a6b-4e9c-85ea-37908e903926" d="M788.03,370.67v-10.32c-.32-.16-.64-.32-.96-.48v-8.4c-.32-.24-.64-.48-.96-.72v-6.24c-.4-.32-.8-.64-1.2-.96-.57-1.39,.86-3.97,.24-5.76-.4-.4-.8-.8-1.2-1.2v-5.28c-.12-.26-.83-.37-.96-.72v-4.32c-.1-.17-.85-.24-.96-.48v-4.32c-.32-.24-.64-.48-.96-.72v-4.32c-.11-.24-.86-.31-.96-.48v-3.36c-.4-.4-.8-.8-1.2-1.2,.08-.88,.16-1.76,.24-2.64-.4-.4-.8-.8-1.2-1.2v-3.36c-.1-.17-.85-.24-.96-.48v-3.36c-.32-.24-.64-.48-.96-.72v-3.12c-.32-.24-.64-.48-.96-.72v-3.36c-.11-.24-.86-.31-.96-.48v-2.4c-.4-.4-.8-.8-1.2-1.2-.23-.81,.6-1.39,0-2.16-.17-.21-.83-.2-.96-.48v-2.4c-.12-.26-.83-.37-.96-.72v-3.36c-.1-.17-.85-.24-.96-.48v-2.4c-.32-.16-.64-.32-.96-.48v-2.4c-.19-.44-2.04-2.71-2.16-3.12l.24-1.68c-.17-.46-1.02-.57-1.2-.96v-2.4c-.12-.26-.83-.37-.96-.72v-2.16c-.32-.24-.64-.48-.96-.72v-1.2c-.32-.24-.64-.48-.96-.72v-2.4c-.32-.16-.64-.32-.96-.48v-1.44c-.19-.39-1.04-.5-1.2-.96l.24-1.92h-.24c-.32-.32-.64-.64-.96-.96v-1.44c-.11-.18-.84-.23-.96-.48v-2.4l-.96-.48v-1.44c-.12-.25-.84-.3-.96-.48v-1.44c-.32-.24-.64-.48-.96-.72v-2.16c-.32-.24-.64-.48-.96-.72l-.24-1.68c-.19-.27-.79-.32-.96-.72v-1.2c-.24-.08-.48-.16-.72-.24-.08-.56-.16-1.12-.24-1.68-.32-.24-.64-.48-.96-.72v-1.2c-.32-.24-.64-.48-.96-.72v-1.2c-.32-.24-.64-.48-.96-.72v-1.2c-.32-.24-.64-.48-.96-.72l-.24-1.68c-.19-.27-.79-.32-.96-.72v-1.2c-.14-.27-.81-.37-.96-.72v-1.2c-.32-.24-.64-.48-.96-.72v-1.2c-.32-.24-.64-.48-.96-.72v-1.2c-.32-.24-.64-.48-.96-.72v-1.2c-.32-.24-.64-.48-.96-.72l-.24-1.68c-.19-.27-.79-.32-.96-.72v-1.2c-.14-.27-.81-.37-.96-.72v-1.2c-.32-.63-1.55-.9-1.92-1.44v-1.44c-.32-.24-.64-.48-.96-.72v-1.2c-.32-.24-.64-.48-.96-.72-.08-.56-.16-1.12-.24-1.68-.41-.54-1.59-.79-1.92-1.44v-1.44c-.11-.18-.84-.23-.96-.48v-1.44c-.29-.53-1.63-.91-1.92-1.44v-1.44c-.31-.6-1.49-.93-1.92-1.44-.56-.68-.73-2.69-1.2-3.6-.64-.56-1.28-1.12-1.92-1.68v-1.2c-.64-.56-1.28-1.12-1.92-1.68l-.24-1.68c-.39-.52-1.61-.84-1.92-1.44v-1.44c-.29-.53-1.63-.91-1.92-1.44v-1.44c-.3-.59-1.56-.92-1.92-1.44-.08-.56-.16-1.12-.24-1.68-.96-.88-1.92-1.76-2.88-2.64v-1.2c-.96-.88-1.92-1.76-2.88-2.64-.08-.56-.16-1.12-.24-1.68-.41-.54-1.59-.79-1.92-1.44v-1.44c-.1-.16-.81-.3-.96-.48-.74-.87-1.38-1.78-2.16-2.64-.24-.08-.48-.16-.72-.24l-.24-1.68c-.32-.16-.64-.32-.96-.48-.73-.86-1.34-1.87-2.16-2.64-.24-.08-.48-.16-.72-.24v-1.44c-.68-1.33-2.88-2.21-3.84-3.36-.08-.56-.16-1.12-.24-1.68-2-1.92-4-3.84-6-5.76-.27-.53,.06-1.05-.24-1.44-3.6-3.52-7.2-7.04-10.8-10.56v-1.2c-1.28-1.2-2.56-2.4-3.84-3.6-3.07-3.07-5.53-6.55-9.6-8.64-2.4-2.48-4.8-4.96-7.2-7.44-1.2-1.2-2.4-2.4-3.6-3.6h-1.2c-.48-.48-.96-.96-1.44-1.44-1.44-1.52-2.88-3.04-4.32-4.56-.56-.08-1.12-.16-1.68-.24-1.15-.96-2.03-3.16-3.36-3.84h-1.44c-.76-.42-1.56-1.96-2.16-2.64-.29-.33-1.3-1.28-1.68-1.44h-1.2l-.24-.72c-.86-.78-1.77-1.42-2.64-2.16-.18-.15-.32-.85-.48-.96h-1.44c-.64-.72-1.28-1.44-1.92-2.16h-1.2c-.88-.96-1.76-1.92-2.64-2.88h-1.2c-.88-.96-1.76-1.92-2.64-2.88-.56-.08-1.12-.16-1.68-.24-.52-.35-.85-1.62-1.44-1.92h-1.44c-.53-.29-.91-1.63-1.44-1.92h-1.44c-.6-.31-.93-1.49-1.44-1.92-.56-.08-1.12-.16-1.68-.24-.56-.64-1.12-1.28-1.68-1.92h-1.2c-.56-.64-1.12-1.28-1.68-1.92-.92-.47-2.92-.63-3.6-1.2-.51-.43-.84-1.61-1.44-1.92h-1.44c-.53-.29-.91-1.63-1.44-1.92h-1.44c-.25-.12-.3-.84-.48-.96h-1.44c-.64-.72-1.28-1.44-1.92-2.16h-1.2c-.24-.32-.48-.64-.72-.96h-1.2c-.24-.32-.48-.64-.72-.96h-1.44c-.54-.36-.81-1.6-1.44-1.92h-1.2c-.35-.15-.45-.82-.72-.96h-1.2c-.4-.4-.8-.8-1.2-1.2-7.26-3.21-13.61-6.67-20.88-9.84-.35-.15-.45-.82-.72-.96h-1.2c-.42-.18-.43-.73-.72-.96-.56-.08-1.12-.16-1.68-.24-.24-.32-.48-.64-.72-.96h-2.16c-.24-.32-.48-.64-.72-.96h-1.44c-.18-.11-.24-.84-.48-.96h-1.44c-.16-.32-.32-.64-.48-.96h-2.4c-.24-.32-.48-.64-.72-.96h-1.2c-.32-.4-.64-.8-.96-1.2h-2.4c-.17-.1-.25-.84-.48-.96h-1.44c-.16-.32-.32-.64-.48-.96h-2.4c-.24-.32-.48-.64-.72-.96h-1.2c-.24-.32-.48-.64-.72-.96h-2.16c-.35-.13-.46-.83-.72-.96h-2.16c-.4-.4-.8-.8-1.2-1.2h-2.16c-.24-.32-.48-.64-.72-.96h-1.2c-.24-.32-.48-.64-.72-.96h-2.4c-.16-.32-.32-.64-.48-.96h-2.4c-.24-.32-.48-.64-.72-.96h-3.12c-.35-.13-.46-.83-.72-.96h-2.16c-.4-.4-.8-.8-1.2-1.2h-2.16c-.24-.32-.48-.64-.72-.96h-2.16c-.24-.32-.48-.64-.72-.96h-3.36c-.24-.32-.48-.64-.72-.96h-3.12c-.24-.32-.48-.64-.72-.96h-3.36c-.24-.32-.48-.64-.72-.96h-3.12c-.4-.4-.8-.8-1.2-1.2h-3.12c-.24-.32-.48-.64-.72-.96h-3.12c-.24-.32-.48-.64-.72-.96h-4.32c-.24-.32-.48-.64-.72-.96h-4.32c-.24-.11-.31-.86-.48-.96h-4.32c-.24-.32-.48-.64-.72-.96h-5.28c-.4-.4-.8-.8-1.2-1.2h-6c-.77-.33-.47-.91-1.92-.96-2.32-.09-4.74,.44-5.76-.96-2.53,.07-7.96,.72-8.88-.96-3.16,.03-8.52,.7-10.8-.48v-.72h-57.84v.72c-.16,.16-.32,.32-.48,.48h-10.32c-.16,.32-.32,.64-.48,.96h-8.4c-.24,.32-.48,.64-.72,.96h-6.24c-.24,.32-.48,.64-.72,.96h-6c-.4,.4-.8,.8-1.2,1.2h-5.28c-.24,.32-.48,.64-.72,.96h-4.32c-.17,.1-.24,.85-.48,.96h-4.32c-.24,.32-.48,.64-.72,.96h-4.32c-.24,.32-.48,.64-.72,.96h-3.12c-.24,.32-.48,.64-.72,.96h-3.12c-.4,.4-.8,.8-1.2,1.2h-3.12c-.24,.32-.48,.64-.72,.96h-3.36c-.24,.32-.48,.64-.72,.96h-3.12c-.24,.32-.48,.64-.72,.96h-3.36c-.24,.32-.48,.64-.72,.96h-2.16c-.24,.32-.48,.64-.72,.96h-2.16c-.4,.4-.8,.8-1.2,1.2h-2.16c-.26,.13-.37,.83-.72,.96h-3.12c-.24,.32-.48,.64-.72,.96h-2.4c-.16,.32-.32,.64-.48,.96h-2.4c-.24,.32-.48,.64-.72,.96h-1.2c-.24,.32-.48,.64-.72,.96h-2.16c-.4,.4-.8,.8-1.2,1.2h-2.16c-.26,.13-.37,.83-.72,.96h-2.16c-.24,.32-.48,.64-.72,.96h-1.2c-.24,.32-.48,.64-.72,.96h-2.4c-.16,.32-.32,.64-.48,.96h-1.44c-.24,.12-.31,.86-.48,.96h-2.4c-.32,.4-.64,.8-.96,1.2h-1.2c-.24,.32-.48,.64-.72,.96h-2.4c-.16,.32-.32,.64-.48,.96h-1.44c-.25,.12-.3,.84-.48,.96h-1.44c-.24,.32-.48,.64-.72,.96h-2.16c-.24,.32-.48,.64-.72,.96-.56,.08-1.12,.16-1.68,.24-.29,.23-.3,.78-.72,.96h-1.2l-.24,.72c-.56,.08-1.12,.16-1.68,.24-.24,.32-.48,.64-.72,.96h-1.2c-.24,.32-.48,.64-.72,.96h-1.2c-.24,.32-.48,.64-.72,.96h-1.2c-.24,.32-.48,.64-.72,.96-.56,.08-1.12,.16-1.68,.24-.29,.23-.3,.78-.72,.96h-1.2c-.27,.14-.37,.81-.72,.96h-1.2c-.24,.32-.48,.64-.72,.96h-1.2c-.24,.32-.48,.64-.72,.96h-1.2c-.24,.32-.48,.64-.72,.96h-1.2c-.24,.32-.48,.64-.72,.96-.56,.08-1.12,.16-1.68,.24-.29,.23-.3,.78-.72,.96h-1.2c-.27,.14-.37,.81-.72,.96h-1.2c-.63,.32-.9,1.55-1.44,1.92h-1.44c-.24,.32-.48,.64-.72,.96h-1.2c-.24,.32-.48,.64-.72,.96h-1.2c-.64,.72-1.28,1.44-1.92,2.16h-1.44c-.18,.11-.23,.84-.48,.96h-1.44c-.53,.29-.91,1.62-1.44,1.92h-1.44c-.6,.31-.93,1.49-1.44,1.92-.68,.56-2.69,.73-3.6,1.2-.56,.64-1.12,1.28-1.68,1.92h-1.2c-.56,.64-1.12,1.28-1.68,1.92-.56,.08-1.12,.16-1.68,.24-.51,.43-.84,1.61-1.44,1.92h-1.44c-.53,.29-.91,1.63-1.44,1.92h-1.44c-.59,.3-.92,1.56-1.44,1.92-.56,.08-1.12,.16-1.68,.24-.88,.96-1.76,1.92-2.64,2.88h-1.2c-.88,.96-1.76,1.92-2.64,2.88h-1.2c-.64,.72-1.28,1.44-1.92,2.16h-1.44c-.16,.11-.3,.81-.48,.96-.87,.74-1.78,1.38-2.64,2.16-.08,.24-.16,.48-.24,.72h-1.2c-.38,.16-1.39,1.11-1.68,1.44-.6,.68-1.4,2.22-2.16,2.64h-1.44c-1.33,.68-2.21,2.88-3.36,3.84-.56,.08-1.12,.16-1.68,.24-1.44,1.52-2.88,3.04-4.32,4.56-.48,.48-.96,.96-1.44,1.44h-1.2c-1.2,1.2-2.4,2.4-3.6,3.6-2.4,2.48-4.8,4.96-7.2,7.44h-1.2c-1.2,1.28-2.4,2.56-3.6,3.84-3.07,3.07-6.55,5.53-8.64,9.6-2.64,2.56-5.28,5.12-7.92,7.68-1.04,1.04-2.08,2.08-3.12,3.12v1.2c-2,1.92-4,3.84-6,5.76-.08,.56-.16,1.12-.24,1.68-.96,1.15-3.16,2.03-3.84,3.36v1.44c-.24,.08-.48,.16-.72,.24-.82,.77-1.43,1.78-2.16,2.64-.32,.16-.64,.32-.96,.48l-.24,1.68c-.24,.08-.48,.16-.72,.24-.78,.86-1.41,1.77-2.16,2.64-.15,.18-.85,.32-.96,.48v1.44c-.33,.65-1.51,.9-1.92,1.44-.08,.56-.16,1.12-.24,1.68-.96,.88-1.92,1.76-2.88,2.64v1.2c-.96,.88-1.92,1.76-2.88,2.64-.08,.56-.16,1.12-.24,1.68-.35,.52-1.62,.85-1.92,1.44v1.44c-.29,.53-1.63,.91-1.92,1.44v1.44c-.31,.6-1.53,.92-1.92,1.44l-.24,1.68c-.64,.56-1.28,1.12-1.92,1.68v1.2c-.64,.56-1.28,1.12-1.92,1.68-.47,.92-.63,2.92-1.2,3.6-.43,.51-1.61,.84-1.92,1.44v1.44c-.29,.53-1.63,.91-1.92,1.44v1.44c-.12,.25-.84,.3-.96,.48v1.44c-.33,.65-1.5,.9-1.92,1.44-.08,.56-.16,1.12-.24,1.68-.32,.24-.64,.48-.96,.72v1.2c-.32,.24-.64,.48-.96,.72v1.44c-.36,.54-1.6,.81-1.92,1.44v1.2c-.15,.35-.82,.45-.96,.72v1.2c-.17,.4-.77,.45-.96,.72l-.24,1.68c-.32,.24-.64,.48-.96,.72v1.2c-.32,.24-.64,.48-.96,.72v1.2c-.32,.24-.64,.48-.96,.72v1.2c-.32,.24-.64,.48-.96,.72-.08,.56-.16,1.12-.24,1.68-.24,.08-.48,.16-.72,.24v1.2c-.17,.4-.77,.45-.96,.72l-.24,1.68c-.32,.24-.64,.48-.96,.72v1.2c-.32,.24-.64,.48-.96,.72v1.2c-.32,.24-.64,.48-.96,.72v1.2c-.32,.24-.64,.48-.96,.72v1.2c-.15,.35-.82,.45-.96,.72l-.24,1.68-.72,.24c-.38,.54-.59,1.8-.96,2.4h-.24v2.16c-.32,.24-.64,.48-.96,.72v1.44c-.11,.18-.84,.24-.96,.48v1.44c-.32,.16-.64,.32-.96,.48v2.4c-.12,.25-.84,.3-.96,.48v1.44c-.4,.32-.8,.64-1.2,.96l.24,1.92h-.24c-.26,.53-.76,.56-.96,.96v1.44c-.32,.16-.64,.32-.96,.48v2.4c-.32,.24-.64,.48-.96,.72v1.2c-.32,.24-.64,.48-.96,.72v2.16c-.13,.35-.83,.46-.96,.72v2.4c-.18,.39-1.04,.5-1.2,.96l.24,1.68c-.13,.43-1.96,2.66-2.16,3.12v2.4c-.32,.16-.64,.32-.96,.48v2.4c-.11,.24-.86,.31-.96,.48v3.36c-.13,.35-.83,.46-.96,.72v2.4c-.13,.29-.79,.27-.96,.48-.6,.78,.24,1.36,0,2.16-.4,.4-.8,.8-1.2,1.2v2.4c-.1,.17-.85,.24-.96,.48v3.36c-.32,.24-.64,.48-.96,.72v3.12c-.32,.24-.64,.48-.96,.72v3.36c-.11,.24-.86,.31-.96,.48v3.36c-.4,.4-.8,.8-1.2,1.2,.08,.88,.16,1.76,.24,2.64-.4,.4-.8,.8-1.2,1.2v3.36c-.1,.17-.85,.24-.96,.48v4.32c-.32,.24-.64,.48-.96,.72v4.32c-.11,.24-.86,.31-.96,.48v4.32c-.13,.35-.84,.46-.96,.72v5.28c-.4,.4-.8,.8-1.2,1.2-.63,1.79,.81,4.37,.24,5.76-.25,.6-1.05,.54-1.2,1.44-.42,2.5,.71,5.27-.96,6.48,.07,2.53,.72,7.96-.96,8.88,.03,3.16,.7,8.52-.48,10.8h-.72v57.84c.76,.14,.7,.21,1.2,.48v10.32c.32,.16,.64,.32,.96,.48v8.4c.32,.24,.64,.48,.96,.72v6.24c.4,.32,.8,.64,1.2,.96,.57,1.39-.86,3.97-.24,5.76,.4,.4,.8,.8,1.2,1.2v5.28c.12,.26,.83,.37,.96,.72v4.32c.1,.17,.85,.24,.96,.48v4.32c.32,.24,.64,.48,.96,.72v4.32c.11,.24,.86,.31,.96,.48v3.36c.4,.4,.8,.8,1.2,1.2-.08,.88-.16,1.76-.24,2.64,.4,.4,.8,.8,1.2,1.2v3.36c.1,.17,.85,.24,.96,.48v3.36c.32,.24,.64,.48,.96,.72v3.12c.32,.24,.64,.48,.96,.72v3.36c.11,.24,.86,.31,.96,.48v2.4c.4,.4,.8,.8,1.2,1.2,.23,.81-.6,1.39,0,2.16,.17,.21,.83,.2,.96,.48v2.4c.12,.26,.83,.37,.96,.72v3.36c.1,.17,.85,.24,.96,.48v2.4c.32,.16,.64,.32,.96,.48v2.4c.19,.44,2.04,2.71,2.16,3.12l-.24,1.68c.17,.46,1.02,.57,1.2,.96v2.4c.12,.26,.83,.37,.96,.72v2.16c.32,.24,.64,.48,.96,.72v1.2c.32,.24,.64,.48,.96,.72v2.4l.96,.48v1.44c.19,.39,1.04,.5,1.2,.96l-.24,1.92h.24c.32,.32,.64,.64,.96,.96v1.44c.11,.18,.84,.23,.96,.48v2.4c.32,.16,.64,.32,.96,.48v1.44c.12,.25,.84,.3,.96,.48v1.44c.32,.24,.64,.48,.96,.72v2.16c.32,.24,.64,.48,.96,.72l.24,1.68c.19,.27,.79,.32,.96,.72v1.2c.24,.08,.48,.16,.72,.24,.08,.56,.16,1.12,.24,1.68,.32,.24,.64,.48,.96,.72v1.2c.32,.24,.64,.48,.96,.72v1.2c.32,.24,.64,.48,.96,.72v1.2c.32,.24,.64,.48,.96,.72l.24,1.68c.19,.27,.79,.32,.96,.72v1.2c.14,.27,.81,.37,.96,.72v1.2c.32,.24,.64,.48,.96,.72v1.2c.32,.24,.64,.48,.96,.72v1.2c.32,.24,.64,.48,.96,.72v1.2c.32,.24,.64,.48,.96,.72l.24,1.68c.19,.27,.79,.32,.96,.72v1.2c.14,.27,.81,.37,.96,.72v1.2c.32,.63,1.55,.9,1.92,1.44v1.44c.32,.24,.64,.48,.96,.72v1.2c.32,.24,.64,.48,.96,.72,.08,.56,.16,1.12,.24,1.68,.41,.54,1.59,.79,1.92,1.44v1.44c.11,.18,.84,.23,.96,.48v1.44c.29,.53,1.63,.91,1.92,1.44v1.44c.31,.6,1.49,.93,1.92,1.44,.56,.68,.73,2.69,1.2,3.6,.64,.56,1.28,1.12,1.92,1.68v1.2c.64,.56,1.28,1.12,1.92,1.68l.24,1.68c.39,.52,1.61,.84,1.92,1.44v1.44c.29,.53,1.63,.91,1.92,1.44v1.44c.3,.59,1.56,.92,1.92,1.44,.08,.56,.16,1.12,.24,1.68,.96,.88,1.92,1.76,2.88,2.64v1.2c.96,.88,1.92,1.76,2.88,2.64,.08,.56,.16,1.12,.24,1.68,.41,.54,1.59,.79,1.92,1.44v1.44c.1,.16,.81,.3,.96,.48,.74,.87,1.38,1.78,2.16,2.64,.24,.08,.48,.16,.72,.24l.24,1.68c.32,.16,.64,.32,.96,.48,.73,.86,1.34,1.87,2.16,2.64,.24,.08,.48,.16,.72,.24v1.44c.68,1.33,2.88,2.21,3.84,3.36,.08,.56,.16,1.12,.24,1.68,2,1.92,4,3.84,6,5.76,.27,.53-.06,1.05,.24,1.44,3.6,3.52,7.2,7.04,10.8,10.56v1.2c1.28,1.2,2.56,2.4,3.84,3.6,3.07,3.07,5.53,6.55,9.6,8.64,2.4,2.48,4.8,4.96,7.2,7.44,1.2,1.2,2.4,2.4,3.6,3.6h1.2c.48,.48,.96,.96,1.44,1.44,1.44,1.52,2.88,3.04,4.32,4.56,.56,.08,1.12,.16,1.68,.24,1.15,.96,2.03,3.16,3.36,3.84h1.44c.76,.42,1.56,1.96,2.16,2.64,.29,.33,1.3,1.28,1.68,1.44h1.2c.08,.24,.16,.48,.24,.72,.86,.78,1.77,1.42,2.64,2.16,.18,.15,.32,.85,.48,.96h1.44c.64,.72,1.28,1.44,1.92,2.16h1.2c.88,.96,1.76,1.92,2.64,2.88h1.2c.88,.96,1.76,1.92,2.64,2.88,.56,.08,1.12,.16,1.68,.24,.52,.35,.85,1.62,1.44,1.92h1.44c.53,.29,.91,1.63,1.44,1.92h1.44c.6,.31,.93,1.49,1.44,1.92,.56,.08,1.12,.16,1.68,.24,.56,.64,1.12,1.28,1.68,1.92h1.2c.56,.64,1.12,1.28,1.68,1.92,.92,.47,2.92,.63,3.6,1.2,.51,.43,.84,1.61,1.44,1.92h1.44c.53,.29,.91,1.63,1.44,1.92h1.44c.25,.12,.3,.84,.48,.96h1.44c.64,.72,1.28,1.44,1.92,2.16h1.2c.24,.32,.48,.64,.72,.96h1.2c.24,.32,.48,.64,.72,.96h1.44c.54,.36,.81,1.6,1.44,1.92h1.2c.35,.15,.45,.82,.72,.96h1.2c.4,.4,.8,.8,1.2,1.2,7.26,3.21,13.61,6.67,20.88,9.84,.35,.15,.45,.82,.72,.96h1.2c.42,.18,.43,.73,.72,.96,.56,.08,1.12,.16,1.68,.24,.24,.32,.48,.64,.72,.96h2.16c.24,.32,.48,.64,.72,.96h1.44c.18,.11,.24,.84,.48,.96h1.44c.16,.32,.32,.64,.48,.96h2.4c.24,.32,.48,.64,.72,.96h1.2c.32,.4,.64,.8,.96,1.2h2.4c.17,.1,.25,.84,.48,.96h1.44c.16,.32,.32,.64,.48,.96h2.4c.24,.32,.48,.64,.72,.96h1.2c.24,.32,.48,.64,.72,.96h2.16c.35,.13,.46,.83,.72,.96h2.16c.4,.4,.8,.8,1.2,1.2h2.16c.24,.32,.48,.64,.72,.96h1.2c.24,.32,.48,.64,.72,.96h2.4c.16,.32,.32,.64,.48,.96h2.4c.24,.32,.48,.64,.72,.96h3.12c.35,.13,.46,.83,.72,.96h2.16c.4,.4,.8,.8,1.2,1.2h2.16c.24,.32,.48,.64,.72,.96h2.16c.24,.32,.48,.64,.72,.96h3.36c.24,.32,.48,.64,.72,.96h3.12c.24,.32,.48,.64,.72,.96h3.36c.24,.32,.48,.64,.72,.96h3.12c.4,.4,.8,.8,1.2,1.2h3.12c.24,.32,.48,.64,.72,.96h3.12c.24,.32,.48,.64,.72,.96h4.32c.24,.32,.48,.64,.72,.96h4.32c.24,.11,.31,.86,.48,.96h4.32c.24,.32,.48,.64,.72,.96h5.28c.4,.4,.8,.8,1.2,1.2h6c.77,.33,.47,.91,1.92,.96,2.32,.09,4.74-.44,5.76,.96,2.53-.07,7.96-.72,8.88,.96h10.32c.24,.32,.48,.64,.72,.96h53.28c2.12,0,3.92,.29,4.8-.96h10.32c.16-.32,.32-.64,.48-.96h8.4c.24-.32,.48-.64,.72-.96h6.24c.24-.32,.48-.64,.72-.96h6c.4-.4,.8-.8,1.2-1.2h5.28c.24-.32,.48-.64,.72-.96h4.32c.17-.1,.24-.85,.48-.96h4.32c.24-.32,.48-.64,.72-.96h4.32c.24-.32,.48-.64,.72-.96h3.12c.24-.32,.48-.64,.72-.96h3.12c.4-.4,.8-.8,1.2-1.2h3.12c.24-.32,.48-.64,.72-.96h3.36c.24-.32,.48-.64,.72-.96h3.12c.24-.32,.48-.64,.72-.96h3.36c.24-.32,.48-.64,.72-.96h2.16c.24-.32,.48-.64,.72-.96h2.16c.4-.4,.8-.8,1.2-1.2h2.16c.26-.13,.37-.83,.72-.96h3.12c.24-.32,.48-.64,.72-.96h2.4c.16-.32,.32-.64,.48-.96h2.4c.24-.32,.48-.64,.72-.96h1.2c.24-.32,.48-.64,.72-.96h2.16c.4-.4,.8-.8,1.2-1.2h2.16c.26-.13,.37-.83,.72-.96h2.16c.24-.32,.48-.64,.72-.96h1.2c.24-.32,.48-.64,.72-.96h2.4c.16-.32,.32-.64,.48-.96h1.44c.24-.12,.31-.86,.48-.96h2.4c.32-.4,.64-.8,.96-1.2h1.2c.24-.32,.48-.64,.72-.96h2.4c.16-.32,.32-.64,.48-.96h1.44c.25-.12,.3-.84,.48-.96h1.44c.24-.32,.48-.64,.72-.96h2.16c.24-.32,.48-.64,.72-.96,.56-.08,1.12-.16,1.68-.24,.29-.23,.3-.78,.72-.96h1.2l.24-.72c.56-.08,1.12-.16,1.68-.24,.24-.32,.48-.64,.72-.96h1.2c.24-.32,.48-.64,.72-.96h1.2c.24-.32,.48-.64,.72-.96h1.2c.24-.32,.48-.64,.72-.96,.56-.08,1.12-.16,1.68-.24,.29-.23,.3-.78,.72-.96h1.2c.27-.14,.37-.81,.72-.96h1.2c.24-.32,.48-.64,.72-.96h1.2c.24-.32,.48-.64,.72-.96h1.2c.24-.32,.48-.64,.72-.96h1.2c.24-.32,.48-.64,.72-.96,.56-.08,1.12-.16,1.68-.24,.29-.23,.3-.78,.72-.96h1.2c.27-.14,.37-.81,.72-.96h1.2c.63-.32,.9-1.55,1.44-1.92h1.44c.24-.32,.48-.64,.72-.96h1.2c.24-.32,.48-.64,.72-.96h1.2c.64-.72,1.28-1.44,1.92-2.16h1.44c.18-.11,.24-.84,.48-.96h1.44c.53-.29,.91-1.62,1.44-1.92h1.44c.6-.31,.93-1.49,1.44-1.92,.68-.56,2.69-.73,3.6-1.2,.56-.64,1.12-1.28,1.68-1.92h1.2c.56-.64,1.12-1.28,1.68-1.92,.56-.08,1.12-.16,1.68-.24,.51-.43,.84-1.61,1.44-1.92h1.44c.53-.29,.91-1.63,1.44-1.92h1.44c.59-.3,.92-1.56,1.44-1.92,.56-.08,1.12-.16,1.68-.24,.88-.96,1.76-1.92,2.64-2.88h1.2c.88-.96,1.76-1.92,2.64-2.88h1.2c.64-.72,1.28-1.44,1.92-2.16h1.44c.16-.11,.3-.81,.48-.96,.88-.74,1.78-1.38,2.64-2.16l.24-.72h1.2c.38-.16,1.39-1.11,1.68-1.44,.6-.68,1.4-2.22,2.16-2.64h1.44c1.33-.68,2.21-2.88,3.36-3.84,.56-.08,1.12-.16,1.68-.24,1.44-1.52,2.88-3.04,4.32-4.56,.48-.48,.96-.96,1.44-1.44h1.2c1.2-1.2,2.4-2.4,3.6-3.6,2.4-2.48,4.8-4.96,7.2-7.44h1.2c1.2-1.28,2.4-2.56,3.6-3.84,3.07-3.07,6.55-5.53,8.64-9.6,2.64-2.56,5.28-5.12,7.92-7.68,1.04-1.04,2.08-2.08,3.12-3.12v-1.2c2-1.92,4-3.84,6-5.76,.08-.56,.16-1.12,.24-1.68,.96-1.15,3.16-2.03,3.84-3.36v-1.44c.24-.08,.48-.16,.72-.24,.82-.77,1.43-1.78,2.16-2.64,.32-.16,.64-.32,.96-.48l.24-1.68c.24-.08,.48-.16,.72-.24,.78-.86,1.42-1.77,2.16-2.64,.15-.18,.85-.32,.96-.48v-1.44c.33-.65,1.51-.9,1.92-1.44,.08-.56,.16-1.12,.24-1.68,.96-.88,1.92-1.76,2.88-2.64v-1.2c.96-.88,1.92-1.76,2.88-2.64,.08-.56,.16-1.12,.24-1.68,.35-.52,1.62-.85,1.92-1.44v-1.44c.29-.53,1.63-.91,1.92-1.44v-1.44c.31-.6,1.53-.92,1.92-1.44l.24-1.68c.64-.56,1.28-1.12,1.92-1.68v-1.2c.64-.56,1.28-1.12,1.92-1.68,.47-.92,.63-2.92,1.2-3.6,.43-.51,1.61-.84,1.92-1.44v-1.44c.29-.53,1.63-.91,1.92-1.44v-1.44c.12-.25,.84-.3,.96-.48v-1.44c.33-.65,1.5-.9,1.92-1.44,.08-.56,.16-1.12,.24-1.68,.32-.24,.64-.48,.96-.72v-1.2c.32-.24,.64-.48,.96-.72v-1.44c.36-.54,1.6-.81,1.92-1.44v-1.2c.15-.35,.82-.45,.96-.72v-1.2c.17-.4,.77-.45,.96-.72l.24-1.68c.32-.24,.64-.48,.96-.72v-1.2c.32-.24,.64-.48,.96-.72v-1.2c.32-.24,.64-.48,.96-.72v-1.2c.32-.24,.64-.48,.96-.72,.08-.56,.16-1.12,.24-1.68,.24-.08,.48-.16,.72-.24v-1.2c.17-.4,.77-.45,.96-.72l.24-1.68c.32-.24,.64-.48,.96-.72v-1.2c.32-.24,.64-.48,.96-.72v-1.2c.32-.24,.64-.48,.96-.72v-1.2c.32-.24,.64-.48,.96-.72v-1.2c.15-.35,.82-.45,.96-.72l.24-1.68,.72-.24c.38-.54,.59-1.8,.96-2.4h.24v-2.16c.32-.24,.64-.48,.96-.72v-1.44c.11-.18,.84-.24,.96-.48v-1.44l.96-.48v-2.4c.12-.25,.84-.3,.96-.48v-1.44c.4-.32,.8-.64,1.2-.96l-.24-1.92h.24c.26-.53,.76-.56,.96-.96v-1.44c.32-.16,.64-.32,.96-.48v-2.4c.32-.24,.64-.48,.96-.72v-1.2c.32-.24,.64-.48,.96-.72v-2.16c.13-.35,.83-.46,.96-.72v-2.4c.18-.39,1.04-.5,1.2-.96l-.24-1.68c.13-.43,1.96-2.66,2.16-3.12v-2.4c.32-.16,.64-.32,.96-.48v-2.4c.11-.24,.86-.31,.96-.48v-3.36c.13-.35,.83-.46,.96-.72v-2.4c.13-.29,.79-.27,.96-.48,.6-.78-.24-1.36,0-2.16,.4-.4,.8-.8,1.2-1.2v-2.4c.1-.17,.85-.24,.96-.48v-3.36c.32-.24,.64-.48,.96-.72v-3.12c.32-.24,.64-.48,.96-.72v-3.36c.11-.24,.86-.31,.96-.48v-3.36c.4-.4,.8-.8,1.2-1.2-.08-.88-.16-1.76-.24-2.64,.4-.4,.8-.8,1.2-1.2v-3.36c.1-.17,.85-.24,.96-.48v-4.32c.32-.24,.64-.48,.96-.72v-4.32c.11-.24,.86-.31,.96-.48v-4.32c.13-.35,.84-.46,.96-.72v-5.28c.4-.4,.8-.8,1.2-1.2,.63-1.79-.81-4.37-.24-5.76,.25-.6,1.05-.54,1.2-1.44,.42-2.5-.71-5.27,.96-6.48-.07-2.53-.72-7.96,.96-8.88v-10.32c.32-.24,.64-.48,.96-.72v-53.28c0-2.12,.29-3.92-.96-4.8ZM274.91,652.91c-.16,.08-.32,.16-.48,.24-.08-.08-.16-.16-.24-.24,.08-.55,.11-.6,.24-.96,.24,.08,.48,.16,.72,.24l-.24,.72ZM472.91,78.11h-.72c-.08-.75-.08-.38,0-.96h.72l.24,.24-.24,.72Zm97.2,104.88c.1-.49,.06-.46,.24-.72,.25-.19,.06-.09,.48-.24,.13,.37,.17,.4,.24,.96h-.96Z"/><text class="uuid-3eb578d0-e836-466c-8d8e-4b54533a17c9" transform="translate(340.16 531.06)"><tspan x="0" y="0">J</tspan></text></svg>